<svg width="60" height="60" viewBox="0 0 60 60" fill="none" xmlns="http://www.w3.org/2000/svg">
<circle cx="30" cy="30" r="29.5" fill="white" stroke="#003C92"/>
<path d="M27.6912 38.3812C30.0633 38.3807 32.367 37.5867 34.2355 36.1255L40.1103 42L42 40.1104L36.1252 34.2359C37.5872 32.3673 38.3818 30.0632 38.3824 27.6906C38.3824 21.7961 33.586 17 27.6912 17C21.7963 17 17 21.7961 17 27.6906C17 33.5851 21.7963 38.3812 27.6912 38.3812ZM27.6912 19.6727C32.1133 19.6727 35.7096 23.2687 35.7096 27.6906C35.7096 32.1125 32.1133 35.7086 27.6912 35.7086C23.269 35.7086 19.6728 32.1125 19.6728 27.6906C19.6728 23.2687 23.269 19.6727 27.6912 19.6727Z" fill="#003C92"/>
<path d="M29.5877 25.8587C30.0875 26.4341 30.363 27.1943 30.363 28H33C33.0012 27.2041 32.865 26.4158 32.5993 25.6807C32.3336 24.9456 31.9437 24.2783 31.4521 23.7173C29.4559 21.4276 25.9949 21.4276 24 23.7173L25.8617 25.8617C26.8638 24.7138 28.591 24.7168 29.5877 25.8587Z" fill="#003C92"/>
</svg>
