<svg width="845" height="862" viewBox="0 0 845 862" fill="none" xmlns="http://www.w3.org/2000/svg">
<path d="M560.728 169.538C560.648 211.906 577.336 262.148 552.939 291.776C524.339 326.481 464.567 295.525 441.825 336.269C418.839 377.5 464.452 438.548 444.444 482.116C432.215 508.659 401.623 512.436 377.744 503.359C353.866 494.281 332.601 475.977 308.3 468.911C273.326 458.663 234.388 474.668 211.779 508.637C189.169 542.607 183.917 592.859 198.859 633.263C213.389 672.585 244.424 699.893 277.502 714.21C310.573 728.612 345.987 731.693 380.853 734.622C448.495 740.399 516.206 746.184 583.848 751.96C631.282 755.98 683.956 758.055 720.028 720.471C754.969 684.039 762.709 622.397 768.103 566.23C776.671 478.213 785.447 390.22 793.738 302.169C799.556 240.037 806.149 164.072 773.202 109.628C718.563 19.2929 561.036 39.5182 560.728 169.538Z" fill="#65CFF4"/>
<path d="M427.506 406.607C447.242 362.377 416.223 225.098 362.104 221.775C307.27 218.411 298.693 262.455 315.695 298.087C326.575 320.883 305.749 318.674 301.123 348.144C297.06 374.014 327.926 414.927 340.23 437.512C366.445 485.643 349.078 508.355 335.902 553.75C371.989 547.262 405.151 534.628 440.755 528.293C435.949 521.41 431.365 515.958 426.782 508.701C402.851 470.799 418.252 447.608 427.506 406.607Z" fill="url(#paint0_linear_313_4)"/>
<path d="M384.817 537.34L385.502 537.317C385.072 523.977 385.685 510.443 386.279 497.354L386.5 492.409C386.965 481.896 387.19 472.482 387.39 464.176C387.504 459.5 387.609 455.081 387.748 450.799C388.172 437.714 388.491 428.558 388.65 424.007C388.705 422.477 388.739 421.466 388.755 421.003C389.9 385.133 378.262 335.968 372.01 309.552C371.333 306.694 370.727 304.138 370.219 301.938C361.507 264.145 356.964 223.781 356.72 181.964L356.034 181.969C356.278 223.836 360.826 264.25 369.552 302.093C370.058 304.293 370.664 306.851 371.34 309.712C377.588 336.093 389.21 385.204 388.067 420.981C388.053 421.445 388.017 422.454 387.964 423.982C387.805 428.533 387.484 437.691 387.063 450.776C386.924 455.063 386.817 459.482 386.705 464.16C386.504 472.462 386.277 481.871 385.814 492.38L385.591 497.322C384.999 510.425 384.384 523.973 384.817 537.34Z" fill="#FCFDFE"/>
<path d="M387.466 471.034L388.151 471.022C387.782 447.287 377.786 419.553 359.239 390.82C343.792 366.887 322.815 343.104 301.688 325.568L301.248 326.097C322.325 343.589 343.252 367.315 358.663 391.194C377.139 419.817 387.099 447.426 387.466 471.034Z" fill="#FCFDFE"/>
<path d="M372.44 314.105L373.046 313.786C363.487 295.62 351.575 278.556 340.054 262.052C332.169 250.758 324.018 239.076 316.684 227.138L316.098 227.498C323.441 239.454 331.602 251.142 339.492 262.444C351.001 278.932 362.899 295.978 372.44 314.105Z" fill="#FCFDFE"/>
<path d="M385.908 379.113C390.458 350.923 409.338 315.244 426.308 302.76L425.901 302.207C408.811 314.782 389.805 350.666 385.229 379.004L385.908 379.113Z" fill="#FCFDFE"/>
<path d="M421.072 405.732C426.686 449.412 400.109 448.64 366.133 449.139C384.48 485.827 400.992 522.223 417.621 559.221C440.354 558.549 456.626 557.645 460.206 530.268C464.256 499.301 465.565 481.299 495.245 463.925C524.925 446.549 541.133 414.886 520.012 387.755C497.785 359.202 511.444 307.562 476.314 293.208C415.105 268.197 415.225 360.245 421.072 405.732Z" fill="url(#paint1_linear_313_4)"/>
<path d="M403.71 509.252C430.103 483.137 451.369 460.643 464.921 428.959C477.892 398.639 479.582 370.158 470.574 333.722C465.902 314.836 464.693 300.777 463.379 281.483L462.693 281.528C464.01 300.859 465.221 314.946 469.907 333.886C478.876 370.167 477.197 398.519 464.29 428.69C450.786 460.261 429.565 482.704 403.227 508.765L403.71 509.252Z" fill="#FCFDFE"/>
<path d="M461.022 546.344L461.384 545.76C451.018 539.294 440.655 534.696 429.706 531.703C424.106 530.172 418.73 529.671 412.383 529.393L412.353 530.079C418.655 530.357 423.985 530.851 429.524 532.366C440.409 535.34 450.711 539.914 461.022 546.344Z" fill="#FCFDFE"/>
<path d="M455.546 447.759C475.448 427.993 504.139 415.077 536.336 411.394L536.258 410.711C503.909 414.414 475.074 427.397 455.063 447.273L455.546 447.759Z" fill="#FCFDFE"/>
<path d="M475.598 374.052L476.27 373.909C475.578 370.67 462.611 346.094 450.706 324.177C438.751 302.168 425.593 278.633 424.265 277.344L423.787 277.836C424.917 278.932 436.722 299.868 450.103 324.505C461.985 346.381 474.922 370.884 475.598 374.052Z" fill="#FCFDFE"/>
<path d="M611.871 528.669C598.037 531.91 593.133 534.156 597.162 535.409C601.499 536.755 609.819 537.377 614.172 537.623C615.67 537.707 616.934 536.491 617.087 534.887C617.087 534.878 617.087 534.869 617.089 534.862C617.142 534.329 616.483 532.496 615.117 529.366L611.871 528.669Z" fill="url(#paint2_linear_313_4)"/>
<path d="M608.867 521.392L610.468 529.849C612.45 531.475 613.844 531.648 614.65 530.368L614.982 522.415L608.867 521.392Z" fill="url(#paint3_linear_313_4)"/>
<path d="M561.162 382.092C554.511 394.763 571.19 411.56 585.92 444.251C600.014 475.525 604.58 504.166 606.3 522.677C610.026 523.171 613.752 523.665 617.479 524.159C619.952 517.188 623.043 506.364 623.667 492.945C624.997 464.372 613.454 460.482 612.809 430.333C612.345 408.604 618.005 394.904 608.78 382.288C607.632 380.719 604.731 377.084 599.898 374.412C586.514 367.017 566.662 371.613 561.162 382.092Z" fill="url(#paint4_linear_313_4)"/>
<path style="mix-blend-mode:multiply" opacity="0.302" d="M585.92 444.249C600.014 475.525 604.58 504.164 606.3 522.677C610.026 523.171 613.752 523.665 617.479 524.159C618.276 521.911 619.137 519.258 619.959 516.252C617.053 514.767 614.438 512.678 612.81 509.694C608.573 501.939 615.335 496.156 613.083 484.146C610.714 471.508 602.071 471.772 599.622 458.871C597.677 448.62 602.761 446.483 601.547 433.872C600.453 422.539 595.805 418.644 593.58 410.797C591.404 403.129 591.577 391.793 601.308 375.264C600.852 374.975 600.392 374.686 599.898 374.412C586.514 367.017 566.662 371.613 561.162 382.092C554.511 394.763 571.19 411.56 585.92 444.249Z" fill="url(#paint5_linear_313_4)"/>
<path d="M548.94 531.78C535.106 535.021 530.202 537.267 534.231 538.52C538.568 539.866 546.888 540.49 551.241 540.734C552.739 540.818 554.003 539.602 554.156 537.998C554.156 537.989 554.156 537.98 554.158 537.973C554.211 537.44 553.552 535.609 552.186 532.477L548.94 531.78Z" fill="url(#paint6_linear_313_4)"/>
<path d="M547.724 524.542L547.642 533.177C549.624 534.803 551.015 534.976 551.821 533.696L553.842 525.563L547.724 524.542Z" fill="url(#paint7_linear_313_4)"/>
<path d="M549.35 373.23C544.257 368.843 543.861 364.044 542.208 364.37C537.181 365.359 541.278 409.558 543.581 457.999C544.989 487.624 545.38 511.544 545.503 526.228C548.892 526.817 552.279 527.41 555.668 528C564.31 514.382 567.498 502.513 568.833 494.678C570.671 483.9 571.332 474.712 570.815 467.116C570.514 462.682 569.796 456.944 571.01 449.059C571.88 443.418 573.322 439.377 573.86 437.826C579.681 421.031 591.001 388.381 582.041 379.138C575.201 372.082 561.025 383.295 549.35 373.23Z" fill="url(#paint8_linear_313_4)"/>
<path d="M582.225 299.143C587.28 298.884 602.027 298.711 613.727 307.343C617.162 309.876 624.006 314.925 623.448 321.193C622.808 328.365 612.65 335.242 597.978 336.74C599.763 339.002 601.551 341.264 603.339 343.525C629.892 347.691 652.281 340.18 658.303 327.696C664.55 314.743 651.475 299.97 646.147 293.95C623.619 268.498 585.109 264.981 573.586 264.296C576.465 275.912 579.344 287.528 582.225 299.143Z" fill="url(#paint9_linear_313_4)"/>
<path d="M473.797 194.386C469.67 200.807 469.97 208.353 474.464 211.243C478.96 214.133 485.95 211.27 490.077 204.852C494.202 198.431 493.904 190.886 489.408 187.995C484.912 185.105 477.924 187.968 473.797 194.386Z" fill="url(#paint10_linear_313_4)"/>
<path d="M535.589 239.11L490.797 193.216C490.212 192.619 489.385 192.332 488.558 192.45C484.984 192.965 475.571 195.441 475.17 207.248C475.136 208.23 475.651 209.157 476.505 209.642L532.796 241.463L535.589 239.11Z" fill="url(#paint11_linear_313_4)"/>
<path d="M532.553 239.146C531.747 240.399 531.806 241.875 532.683 242.437C533.562 243.002 534.926 242.444 535.732 241.189C536.539 239.937 536.479 238.463 535.603 237.898C534.723 237.333 533.359 237.891 532.553 239.146Z" fill="url(#paint12_linear_313_4)"/>
<path d="M493.952 230.068L501.955 224.027C499.299 223.239 498.445 220.88 499.39 216.942C500.809 211.04 496.944 212.177 496.817 216.942C496.733 220.121 496.275 222.8 495.448 224.982L490.565 228.501L493.952 230.068Z" fill="url(#paint13_linear_313_4)"/>
<path d="M545.897 256.226C547.032 262.95 537.377 263.868 537.548 265.881C537.718 267.897 547.353 268.671 553.022 268.794C561.048 268.969 569.159 268.011 569.232 266.614C569.307 265.111 560.06 263.077 556.044 259.654C554.304 258.169 552.705 255.705 552.43 255.042C552.416 255.01 552.245 254.586 551.997 254.015C551.862 253.707 551.728 253.4 551.591 253.097C550.022 244.683 547.066 239.178 545.549 239.217C545.075 239.23 542.861 239.836 542.265 240.226C542.226 240.251 542.189 240.276 542.153 240.301L541.287 241.176C540.672 241.845 540.372 242.328 539.52 245.533C539.317 246.3 538.411 249.844 540.183 253.008C541.488 255.338 545.783 255.561 545.897 256.226Z" fill="url(#paint14_linear_313_4)"/>
<path d="M538.593 238.663C539.224 241.237 541.101 243.692 541.825 243.984C541.918 244.023 542.454 244.269 543.005 244.779C543.08 244.847 543.151 244.931 543.223 245.047C544.18 246.532 542.062 249.065 542.736 249.671C543.223 250.111 544.806 248.983 545.125 249.386C545.424 249.769 544.182 251.006 544.529 251.466C544.79 251.812 545.601 251.243 546.31 251.698C546.663 251.926 546.638 252.179 547.155 253.01C547.446 253.479 547.817 253.983 548.075 254.249C549.33 255.545 551.983 255.488 552.323 254.766C552.416 254.566 552.266 254.452 552.268 253.853C552.268 253.484 552.341 253.067 552.487 252.602C552.799 251.612 553.908 250.689 554.958 249.468C556.898 247.207 557.19 245.61 557.263 245.075C557.29 244.886 557.299 244.745 557.308 244.642C557.461 242.597 556.791 239.809 555.523 238.301C553.4 235.775 550.507 237.916 547.18 235.709C543.344 233.163 544.073 228.239 542.301 228.143C540.349 228.036 537.427 233.908 538.593 238.663Z" fill="#26264F"/>
<path d="M543.884 252.072C544.991 252.04 545.797 250.61 545.519 249.489C545.241 248.371 543.936 247.824 543.515 248.842C542.948 250.215 542.775 252.106 543.884 252.072Z" fill="url(#paint15_linear_313_4)"/>
<path d="M587.168 267.487C582.201 263.879 574.295 263.2 558.468 262.086C546.588 261.248 535.543 261.702 528.929 261.991C514.564 262.617 509.282 263.74 500.169 261.451C493.742 259.838 486.39 257.994 484.242 252.468C481.88 246.398 486.433 237.515 495.692 230.637C493.829 229.122 491.965 227.608 490.102 226.095C486.706 226.842 475.881 229.674 468.28 239.773C461.678 248.546 458.386 261.339 462.63 272.247C466.436 282.032 474.949 286.856 487.768 294.124C502.128 302.266 505.189 299.795 511.211 305.951C515.769 310.611 518.035 320.369 522.383 339.694C524.832 350.584 526.535 359.728 530.592 373.695C534.466 387.035 535.855 388.823 537.354 390.194C544.526 396.753 552.206 391.916 573.434 394.954C586.981 396.895 586.874 399.284 598.891 400.083C609.99 400.819 621.656 401.593 628.559 393.856C634.401 387.308 633.481 377.97 633.322 376.64C632.124 366.65 624.842 362.304 617.754 353.381C611.391 345.368 608.475 335.952 602.645 317.118C592.655 284.847 597.269 274.818 587.168 267.487Z" fill="url(#paint16_linear_313_4)"/>
<path style="mix-blend-mode:multiply" opacity="0.302" d="M462.63 272.247C466.435 282.032 474.949 286.856 487.768 294.124C502.128 302.266 505.189 299.795 511.211 305.951C515.769 310.611 518.035 320.369 522.383 339.694C524.832 350.584 526.535 359.728 530.592 373.695C534.466 387.035 535.855 388.823 537.354 390.194C544.526 396.754 552.206 391.916 573.434 394.954C586.981 396.895 586.874 399.284 598.891 400.083C609.99 400.819 621.656 401.593 628.559 393.856C634.401 387.308 633.481 377.97 633.322 376.64C633.049 374.358 632.445 372.378 631.611 370.565C629.803 377.795 626.749 380.769 624.164 382.136C613.916 387.552 602.879 372.105 581.308 374.075C569.466 375.157 565.726 380.457 560.429 377.373C552.6 372.811 559.408 360.428 551.639 344.04C544.073 328.081 531.851 327.671 530.76 315.103C529.856 304.678 537.844 300.036 534.789 294.226C531.546 288.056 521.274 290.889 504.388 287.266C495.084 285.268 477.261 281.444 467.392 268.585C464.351 264.621 462.434 260.271 461.27 255.912C460.306 261.358 460.596 267.018 462.63 272.247Z" fill="url(#paint17_linear_313_4)"/>
<path d="M295.65 127.715C268.049 114.031 241.731 117.721 228.592 123.536C213.056 130.41 207.904 135.569 194.152 138.165C181.928 140.472 169.239 125.479 159.712 136.074C159.072 136.79 158.281 137.676 157.395 139.211C150.569 151.007 158.632 165.255 156.4 190.15C155.259 202.886 152.498 206.421 149.943 230.899C148.973 240.208 149.175 241.579 149.446 242.656C153.621 259.173 186.738 256.051 210.047 248.924C242.182 239.098 252.527 222.62 273.627 230.115C283.362 233.575 290.757 240.49 295.483 245.79C293.331 206.606 297.802 166.9 295.65 127.715Z" fill="url(#paint18_linear_313_4)"/>
<path d="M295.301 438.919C295.969 438.919 296.508 438.377 296.508 437.71V116.403C296.508 115.735 295.969 115.193 295.301 115.193C294.634 115.193 294.092 115.735 294.092 116.403V437.71C294.092 438.377 294.634 438.919 295.301 438.919Z" fill="#26264F"/>
<path d="M253.347 710.622L380.726 705.429V426.666L253.347 421.384V710.622Z" fill="url(#paint19_linear_313_4)"/>
<path d="M160.914 704.406L253.347 710.622V421.384L160.914 428.185V704.406Z" fill="url(#paint20_linear_313_4)"/>
<path d="M396.116 720.225L519.094 714.626V480.288L396.116 476.256V720.225Z" fill="url(#paint21_linear_313_4)"/>
<path d="M288.546 712.988L396.116 720.225V476.256L288.546 481.905V712.988Z" fill="url(#paint22_linear_313_4)"/>
<path d="M564.077 731.519L681.879 725.445V532.755L564.077 530.334V731.519Z" fill="url(#paint23_linear_313_4)"/>
<path d="M437.32 722.996L564.077 731.519V530.334L437.32 534.119V722.996Z" fill="url(#paint24_linear_313_4)"/>
<defs>
<linearGradient id="paint0_linear_313_4" x1="425.193" y1="639.07" x2="473.197" y2="53.7351" gradientUnits="userSpaceOnUse">
<stop stop-color="#AA80F9"/>
<stop offset="0.996" stop-color="#6165D7"/>
</linearGradient>
<linearGradient id="paint1_linear_313_4" x1="554.471" y1="409.628" x2="385.609" y2="652.064" gradientUnits="userSpaceOnUse">
<stop offset="0.004" stop-color="#E38DDD"/>
<stop offset="1" stop-color="#9571F6"/>
</linearGradient>
<linearGradient id="paint2_linear_313_4" x1="596.116" y1="522.052" x2="594.301" y2="554.362" gradientUnits="userSpaceOnUse">
<stop offset="0.004" stop-color="#26264F"/>
<stop offset="1" stop-color="#444B8C"/>
</linearGradient>
<linearGradient id="paint3_linear_313_4" x1="613.417" y1="543.98" x2="618.7" y2="501.059" gradientUnits="userSpaceOnUse">
<stop stop-color="#FFC444"/>
<stop offset="0.996" stop-color="#F36F56"/>
</linearGradient>
<linearGradient id="paint4_linear_313_4" x1="622.661" y1="370.343" x2="564.338" y2="370.343" gradientUnits="userSpaceOnUse">
<stop stop-color="#311944"/>
<stop offset="1" stop-color="#893976"/>
</linearGradient>
<linearGradient id="paint5_linear_313_4" x1="623.474" y1="370.343" x2="564.398" y2="370.343" gradientUnits="userSpaceOnUse">
<stop stop-color="#311944"/>
<stop offset="1" stop-color="#893976"/>
</linearGradient>
<linearGradient id="paint6_linear_313_4" x1="533.499" y1="518.389" x2="531.684" y2="550.7" gradientUnits="userSpaceOnUse">
<stop offset="0.004" stop-color="#26264F"/>
<stop offset="1" stop-color="#444B8C"/>
</linearGradient>
<linearGradient id="paint7_linear_313_4" x1="552.93" y1="537.604" x2="558.222" y2="494.607" gradientUnits="userSpaceOnUse">
<stop stop-color="#FFC444"/>
<stop offset="0.996" stop-color="#F36F56"/>
</linearGradient>
<linearGradient id="paint8_linear_313_4" x1="580.603" y1="363.901" x2="542.044" y2="363.901" gradientUnits="userSpaceOnUse">
<stop stop-color="#311944"/>
<stop offset="1" stop-color="#893976"/>
</linearGradient>
<linearGradient id="paint9_linear_313_4" x1="655.595" y1="263.856" x2="573.586" y2="263.856" gradientUnits="userSpaceOnUse">
<stop stop-color="#FB6FBB"/>
<stop offset="1" stop-color="#FF9085"/>
</linearGradient>
<linearGradient id="paint10_linear_313_4" x1="491.888" y1="186.469" x2="471.985" y2="186.469" gradientUnits="userSpaceOnUse">
<stop offset="0.004" stop-color="#26264F"/>
<stop offset="1" stop-color="#444B8C"/>
</linearGradient>
<linearGradient id="paint11_linear_313_4" x1="535.589" y1="191.969" x2="475.2" y2="191.969" gradientUnits="userSpaceOnUse">
<stop offset="0.004" stop-color="#26264F"/>
<stop offset="1" stop-color="#444B8C"/>
</linearGradient>
<linearGradient id="paint12_linear_313_4" x1="536.087" y1="237.277" x2="532.199" y2="237.277" gradientUnits="userSpaceOnUse">
<stop offset="0.004" stop-color="#26264F"/>
<stop offset="1" stop-color="#444B8C"/>
</linearGradient>
<linearGradient id="paint13_linear_313_4" x1="501.956" y1="212.522" x2="490.564" y2="212.522" gradientUnits="userSpaceOnUse">
<stop stop-color="#FFC444"/>
<stop offset="0.996" stop-color="#F36F56"/>
</linearGradient>
<linearGradient id="paint14_linear_313_4" x1="543.221" y1="229.875" x2="587.512" y2="288.37" gradientUnits="userSpaceOnUse">
<stop stop-color="#FFC444"/>
<stop offset="0.996" stop-color="#F36F56"/>
</linearGradient>
<linearGradient id="paint15_linear_313_4" x1="537.88" y1="239.275" x2="569.87" y2="281.524" gradientUnits="userSpaceOnUse">
<stop stop-color="#FFC444"/>
<stop offset="0.996" stop-color="#F36F56"/>
</linearGradient>
<linearGradient id="paint16_linear_313_4" x1="431.869" y1="266.498" x2="530.164" y2="380.084" gradientUnits="userSpaceOnUse">
<stop stop-color="#FB6FBB"/>
<stop offset="1" stop-color="#FF9085"/>
</linearGradient>
<linearGradient id="paint17_linear_313_4" x1="430.257" y1="266.666" x2="528.43" y2="380.109" gradientUnits="userSpaceOnUse">
<stop stop-color="#FF9085"/>
<stop offset="1" stop-color="#FB6FBB"/>
</linearGradient>
<linearGradient id="paint18_linear_313_4" x1="134.716" y1="256.213" x2="297.006" y2="248.231" gradientUnits="userSpaceOnUse">
<stop stop-color="#FFC444"/>
<stop offset="0.996" stop-color="#F36F56"/>
</linearGradient>
<linearGradient id="paint19_linear_313_4" x1="-135.17" y1="554.361" x2="247.93" y2="708.932" gradientUnits="userSpaceOnUse">
<stop stop-color="#311944"/>
<stop offset="1" stop-color="#893976"/>
</linearGradient>
<linearGradient id="paint20_linear_313_4" x1="150.38" y1="444.879" x2="10.733" y2="677.833" gradientUnits="userSpaceOnUse">
<stop stop-color="#FF9085"/>
<stop offset="1" stop-color="#FB6FBB"/>
</linearGradient>
<linearGradient id="paint21_linear_313_4" x1="-101.071" y1="520.117" x2="266.112" y2="668.266" gradientUnits="userSpaceOnUse">
<stop stop-color="#311944"/>
<stop offset="1" stop-color="#893976"/>
</linearGradient>
<linearGradient id="paint22_linear_313_4" x1="285.562" y1="486.007" x2="161.415" y2="693.102" gradientUnits="userSpaceOnUse">
<stop stop-color="#FF9085"/>
<stop offset="1" stop-color="#FB6FBB"/>
</linearGradient>
<linearGradient id="paint23_linear_313_4" x1="-62.6678" y1="479.14" x2="293.463" y2="622.829" gradientUnits="userSpaceOnUse">
<stop stop-color="#311944"/>
<stop offset="1" stop-color="#893976"/>
</linearGradient>
<linearGradient id="paint24_linear_313_4" x1="442.115" y1="525.245" x2="331.57" y2="709.65" gradientUnits="userSpaceOnUse">
<stop stop-color="#FF9085"/>
<stop offset="1" stop-color="#FB6FBB"/>
</linearGradient>
</defs>
</svg>
