<svg width="427" height="433" viewBox="0 0 427 433" fill="none" xmlns="http://www.w3.org/2000/svg">
<path d="M377.116 372.552C368.371 381.757 360.099 387.693 353.563 392.383C276.728 447.513 185.811 431.443 166.49 427.518C137.957 421.724 82.8042 410.522 42.929 363.63C-17.3982 292.686 -8.00468 180.915 38.7898 107.136C47.3493 93.6401 92.5622 18.7347 184.457 6.72329C240.07 -0.546547 304.898 14.1151 351.845 53.4467C450.391 136.008 443.374 302.796 377.116 372.552Z" fill="url(#paint0_linear_310_80)"/>
<path d="M291.758 418.272C291.016 418.171 290.354 417.781 289.909 417.181C283.424 408.441 236.269 340.044 299.026 277.524C358.603 218.173 385.608 205.987 389.2 171.114C389.619 167.043 395.125 166.065 396.936 169.736C410.474 197.174 431.565 261.199 361.767 303.222C284.774 349.578 291.084 400.393 294.806 414.834C295.299 416.743 293.71 418.537 291.758 418.272Z" fill="#91B3FA"/>
<path d="M301.306 419.572C299.554 419.333 298.166 417.983 297.895 416.235C296.057 404.341 291.545 359.898 324.286 348.112C360.329 335.139 389.429 368.706 415.924 342.433C417.317 341.051 419.662 342.256 419.33 344.191C416.97 357.915 406.467 389.705 359.735 396.101C309.715 402.947 304.086 408.685 305.096 415.804C305.408 417.998 303.502 419.87 301.306 419.572Z" fill="#91B3FA"/>
<path opacity="0.471" d="M387.458 206.668C386.846 209.255 386.034 211.683 385.064 214.092C384.113 216.5 383.016 218.848 381.821 221.144C379.455 225.753 376.616 230.113 373.505 234.266C367.245 242.552 359.671 249.831 351.323 256.005C347.16 259.073 342.708 261.894 338.31 264.442C334.025 266.927 329.903 269.707 325.955 272.717C318.052 278.738 310.888 285.723 304.561 293.384C291.955 308.714 283.01 327.216 280.064 346.914C278.562 356.741 278.543 366.802 279.898 376.711C281.235 386.633 284.063 396.348 287.791 405.715C287.994 406.215 287.753 406.782 287.252 406.985C286.774 407.178 286.227 406.955 286.006 406.497C281.644 397.239 278.387 387.398 276.583 377.236C275.661 372.161 275.116 367.006 274.96 361.832C274.836 356.658 275.054 351.462 275.706 346.315C276.959 336.007 279.867 325.911 284.054 316.406C288.253 306.897 293.801 298.014 300.282 289.912C306.761 281.799 314.276 274.54 322.494 268.198C326.612 265.035 330.916 262.108 335.411 259.478C339.809 256.954 343.986 254.389 348.032 251.47C356.105 245.703 363.566 239.045 369.987 231.446C373.236 227.68 376.179 223.649 378.868 219.448C381.502 215.238 383.964 210.796 385.737 206.203L385.761 206.143C385.938 205.684 386.453 205.457 386.911 205.633C387.331 205.795 387.558 206.242 387.458 206.668Z" fill="white"/>
<path opacity="0.471" d="M299.23 411.505C299.383 411.074 299.335 410.674 299.321 410.264L299.282 409.037L299.255 406.588C299.256 404.954 299.292 403.321 299.363 401.69C299.508 398.427 299.786 395.166 300.223 391.925C301.114 385.449 302.581 378.991 305.195 372.911C307.78 366.87 311.694 361.098 317.376 357.328C320.205 355.477 323.398 354.159 326.706 353.489C330.013 352.792 333.409 352.689 336.731 352.981C349.753 354.491 362.515 356.987 375.311 359.015C381.685 359.965 388.148 360.813 394.407 359.957C395.962 359.73 397.494 359.39 398.981 358.911C400.455 358.399 401.902 357.796 403.253 357.004C405.975 355.45 408.367 353.325 410.506 350.968L410.512 350.962C410.807 350.636 411.309 350.611 411.634 350.906C411.953 351.197 411.981 351.689 411.7 352.015C409.533 354.51 407.057 356.816 404.163 358.553C402.727 359.435 401.176 360.124 399.596 360.711C398.001 361.262 396.36 361.662 394.706 361.94C388.042 362.916 381.435 362.085 374.988 361.202C368.523 360.281 362.138 359.083 355.731 358.047C349.345 357.007 342.883 356.002 336.523 355.256C333.383 354.953 330.209 355.026 327.148 355.643C324.082 356.236 321.151 357.419 318.528 359.098C313.241 362.465 309.406 367.822 306.802 373.621C304.168 379.448 302.601 385.757 301.608 392.124C301.119 395.313 300.785 398.529 300.583 401.754C300.482 403.368 300.418 404.983 300.385 406.599L300.368 409.022L300.384 410.231C300.394 410.633 300.376 411.044 300.574 411.425C300.76 411.786 300.62 412.231 300.259 412.418C299.897 412.605 299.452 412.464 299.265 412.103C299.168 411.915 299.159 411.705 299.224 411.519L299.23 411.505Z" fill="white"/>
<path d="M267.181 9.08481C291.903 14.2974 315.689 26.3783 331.94 45.7229C347.061 63.7206 354.7 86.931 356.612 110.129C358.704 135.528 351.452 155.781 336.753 176.361C326.44 190.8 312.157 200.116 298.895 211.556C262.445 242.996 248.046 287.626 247.519 334.438C247.502 335.959 246.248 337.174 244.728 337.158C237.334 337.074 217.241 336.85 210.149 336.77C208.789 336.756 189.949 332.252 189.938 330.893C189.867 321.271 206.487 289.776 206.552 286.434C206.884 269.191 209.286 251.728 216.634 235.967C224.638 218.798 237.9 204.764 249.944 190.144C263.932 173.161 273.266 156.256 275.037 134.119C276.691 113.43 273.828 91.7528 262.524 73.9296C253.455 59.6293 238.183 51.2922 221.328 50.7826C207.049 50.3516 185.03 54.9295 178.401 69.3286C175.025 76.6649 176.534 85.4066 179.847 92.7722C183.158 100.138 188.124 106.629 191.958 113.735C203.936 135.928 189.461 155.938 167.438 163.25C159.152 166.002 137.36 163.923 129.358 160.433C114.568 153.981 116.878 137.602 112.481 122.757C98.9471 77.0556 133.533 32.3137 174.287 15.4048C191.793 8.14114 211.581 5.02902 231.197 5.18502C243.459 5.28077 255.653 6.65381 267.181 9.08481Z" fill="url(#paint1_linear_310_80)"/>
<path d="M267.374 389.634C267.374 411.159 255.443 430.204 233.916 430.204C229.267 430.204 213.45 430.247 209.315 428.754C194.309 423.333 194.255 411.803 194.255 394.928C194.255 373.402 201.523 352.231 223.05 352.231C244.576 352.231 267.374 368.107 267.374 389.634Z" fill="url(#paint2_linear_310_80)"/>
<path d="M248.54 4.17954C273.263 9.39214 297.049 21.473 313.3 40.8176C328.42 58.8153 336.059 82.0257 337.971 105.224C340.064 130.623 332.811 150.875 318.113 171.455C307.8 185.895 293.517 195.211 280.254 206.651C243.805 238.09 229.406 282.719 228.879 329.532C228.862 331.054 227.608 332.269 226.088 332.252C218.693 332.169 198.601 331.945 191.509 331.865C190.148 331.849 189.055 330.751 189.044 329.392C188.973 319.77 187.847 284.871 187.912 281.529C188.244 264.286 190.646 246.823 197.994 231.061C205.998 213.893 219.26 199.858 231.304 185.238C245.292 168.255 254.625 151.351 256.397 129.212C258.051 108.524 255.188 86.846 243.884 69.0243C234.814 54.724 219.543 46.3869 202.688 45.8773C188.409 45.4464 166.39 50.0226 159.761 64.4233C156.385 71.7596 157.893 80.5013 161.206 87.8669C164.518 95.2325 169.483 101.724 173.318 108.83C185.296 131.021 170.821 151.033 148.798 158.344C140.512 161.095 131.196 161.327 123.194 157.836C108.404 151.385 98.2382 132.697 93.8411 117.851C80.3068 72.1503 114.892 27.4084 155.646 10.4995C173.153 3.23587 192.941 0.12375 212.557 0.279742C224.819 0.3755 237.012 1.74854 248.54 4.17954Z" fill="url(#paint3_linear_310_80)"/>
<path d="M253.567 390.023C253.567 411.549 236.118 429 214.591 429C193.064 429 175.615 411.549 175.615 390.023C175.615 368.496 193.064 351.045 214.591 351.045C236.118 351.045 253.567 368.496 253.567 390.023Z" fill="url(#paint4_linear_310_80)"/>
<path opacity="0.631" d="M106.742 113.374C106.513 113.374 106.306 113.215 106.256 112.982C103.523 100.649 103.122 81.3354 116.724 59.3652C129.999 37.9202 148.62 23.572 172.07 16.7176C197.139 9.39064 226.901 10.9583 260.532 21.3789C260.796 21.4607 260.944 21.7418 260.862 22.0059C260.78 22.2685 260.498 22.4168 260.236 22.3349C195.623 2.31386 144.96 15.6519 117.573 59.8919C104.15 81.5763 104.54 100.614 107.232 112.765C107.292 113.036 107.12 113.303 106.852 113.362C106.815 113.371 106.779 113.374 106.742 113.374Z" fill="white"/>
<path opacity="0.631" d="M114.942 133.217C114.787 133.217 114.636 133.146 114.537 133.012C114.42 132.851 111.61 128.97 108.998 122.134C108.9 121.876 109.029 121.587 109.287 121.489C109.544 121.391 109.834 121.519 109.933 121.777C112.494 128.477 115.317 132.383 115.345 132.422C115.508 132.646 115.459 132.958 115.237 133.122C115.147 133.186 115.044 133.217 114.942 133.217Z" fill="white"/>
<path opacity="0.631" d="M227.633 364.76C227.557 364.76 227.48 364.743 227.407 364.706C223.413 362.68 219.101 361.653 214.591 361.653C214.315 361.653 214.091 361.429 214.091 361.153C214.091 360.876 214.315 360.652 214.591 360.652C219.26 360.652 223.724 361.716 227.86 363.814C228.107 363.939 228.204 364.24 228.079 364.487C227.991 364.66 227.815 364.76 227.633 364.76Z" fill="white"/>
<path opacity="0.631" d="M198.45 414.461C198.353 414.461 198.255 414.434 198.17 414.376C190.062 408.898 185.221 399.794 185.221 390.023C185.221 379.189 191.155 369.27 200.705 364.136C200.949 364.005 201.252 364.096 201.383 364.34C201.514 364.583 201.423 364.887 201.179 365.017C191.952 369.976 186.221 379.558 186.221 390.023C186.221 399.461 190.897 408.256 198.729 413.547C198.958 413.702 199.02 414.014 198.864 414.242C198.768 414.384 198.611 414.461 198.45 414.461Z" fill="white"/>
<g opacity="0.302">
<path opacity="0.302" d="M84.9355 73.1929C84.5247 73.6995 83.7818 73.7782 83.2752 73.3674C82.2929 72.572 81.2597 71.8059 80.2064 71.0924C79.6735 70.731 79.5283 70.0113 79.8789 69.4738C79.882 69.4676 79.8867 69.4614 79.8913 69.4537C80.2558 68.9147 80.9894 68.7741 81.5284 69.1402C82.6374 69.8908 83.7247 70.697 84.761 71.5357C85.2336 71.9187 85.3325 72.5936 85.0081 73.0925C84.985 73.128 84.9618 73.1604 84.9355 73.1929ZM74.8409 67.971C73.6995 67.4088 72.5241 66.8899 71.3457 66.4281C70.7403 66.1902 70.4406 65.506 70.6785 64.899C70.9194 64.2905 71.6006 63.994 72.2075 64.2318C73.4477 64.7168 74.6849 65.2635 75.8849 65.8566C76.4687 66.1439 76.7081 66.8513 76.4193 67.4366C76.3992 67.4783 76.3761 67.5185 76.3498 67.5571C76.0286 68.0513 75.3814 68.2397 74.8409 67.971ZM65.4273 64.5701C64.1932 64.2766 62.9314 64.0326 61.6773 63.8457C61.0333 63.75 60.5885 63.1492 60.6842 62.5051C60.7815 61.8611 61.3808 61.4163 62.0248 61.512C63.3469 61.7097 64.6751 61.9661 65.974 62.2765C66.6073 62.4279 66.998 63.0627 66.8482 63.6975C66.8158 63.8318 66.7617 63.9569 66.6891 64.0666C66.425 64.4728 65.9246 64.689 65.4273 64.5701ZM55.4886 63.3608C54.219 63.3499 52.934 63.3932 51.6691 63.4905C51.0204 63.5415 50.4521 63.0549 50.4026 62.4063C50.3532 61.756 50.8397 61.1892 51.4884 61.1398C52.8197 61.0363 54.1727 60.99 55.5087 61.0008C56.1604 61.007 56.684 61.5398 56.6778 62.1916C56.6763 62.4233 56.6068 62.641 56.4879 62.8233C56.2763 63.1492 55.9071 63.3638 55.4886 63.3608ZM45.5283 64.394C44.2912 64.6658 43.0478 64.9917 41.8339 65.3686C41.2115 65.5601 40.5504 65.211 40.3574 64.5886C40.1659 63.9662 40.5149 63.3067 41.1373 63.1136C42.4146 62.7198 43.7228 62.3754 45.0248 62.0897C45.6611 61.9507 46.2897 62.3538 46.4287 62.9901C46.4997 63.3113 46.4318 63.6295 46.2665 63.8843C46.1028 64.1361 45.8449 64.326 45.5283 64.394ZM36.0468 67.6065C34.8977 68.144 33.7578 68.7386 32.6582 69.3734C32.0944 69.6977 31.3732 69.5047 31.0473 68.9409C30.7214 68.3757 30.916 67.6559 31.4797 67.33C32.6365 66.6628 33.8366 66.0373 35.0459 65.4705C35.6359 65.194 36.3371 65.4473 36.6136 66.0373C36.7927 66.4204 36.7495 66.8513 36.5348 67.1818C36.419 67.3609 36.2537 67.5092 36.0468 67.6065ZM9.46171 102.417C8.81767 102.32 8.37441 101.719 8.47171 101.075C8.67094 99.7563 8.93042 98.4265 9.24394 97.126C9.3953 96.4928 10.0332 96.102 10.6664 96.2549C11.2996 96.4078 11.6888 97.0442 11.5375 97.6774C11.2394 98.913 10.9938 100.175 10.8054 101.427C10.7792 101.599 10.7174 101.756 10.6278 101.894C10.3838 102.269 9.93432 102.488 9.46171 102.417ZM27.5166 72.8376C26.5173 73.6176 25.5381 74.4501 24.6099 75.3134C24.1327 75.7551 23.3867 75.7289 22.9434 75.2517C22.4986 74.7729 22.5295 74.03 23.0052 73.5836C23.9829 72.6755 25.013 71.7982 26.0664 70.9766C26.5791 70.5765 27.3205 70.6677 27.7205 71.182C28.0386 71.5897 28.0464 72.1395 27.7807 72.5504C27.7112 72.6569 27.6232 72.7542 27.5166 72.8376ZM11.8757 92.4247C11.2703 92.1853 10.9722 91.5011 11.2116 90.8941C11.7012 89.6539 12.2495 88.4167 12.8441 87.2182C13.1314 86.6329 13.8418 86.3966 14.4241 86.6869C15.0079 86.9757 15.2473 87.6831 14.957 88.2669C14.3932 89.4052 13.8712 90.5805 13.4063 91.7605C13.3754 91.8362 13.3399 91.9057 13.2966 91.9706C12.997 92.4324 12.4055 92.6347 11.8757 92.4247ZM20.3703 79.8418C19.5718 80.8257 18.8042 81.8558 18.0891 82.9061C17.7231 83.4451 16.9895 83.5841 16.4505 83.218C15.9192 82.8566 15.7771 82.1369 16.1261 81.601C16.1292 81.5933 16.1338 81.5855 16.14 81.5794C16.8906 80.4735 17.6984 79.3893 18.5401 78.353C18.951 77.8479 19.6938 77.7722 20.2004 78.1831C20.6715 78.5661 20.7704 79.2395 20.446 79.7399C20.4228 79.7739 20.3981 79.8078 20.3703 79.8418Z" fill="#91B3FA"/>
<path opacity="0.302" d="M9.1853 110.699C8.53508 110.719 7.98989 110.208 7.96981 109.557C7.94973 108.917 7.942 108.266 7.94818 107.624C7.95436 106.972 8.4872 106.448 9.13896 106.455C9.79073 106.461 10.3128 106.994 10.3081 107.645C10.3019 108.257 10.3081 108.875 10.3282 109.483C10.3359 109.734 10.2649 109.967 10.1382 110.161C9.93437 110.475 9.58686 110.686 9.1853 110.699Z" fill="#91B3FA"/>
</g>
<g opacity="0.302">
<path opacity="0.302" d="M25.098 142.96C24.6609 143.443 23.915 143.481 23.4331 143.043C22.9574 142.614 22.4832 142.168 22.0245 141.717C21.5597 141.26 21.5504 140.515 22.0091 140.049C22.4647 139.584 23.2122 139.578 23.6771 140.033C24.1127 140.463 24.5636 140.886 25.0146 141.294C25.4502 141.687 25.5228 142.333 25.2139 142.81C25.1799 142.863 25.1413 142.912 25.098 142.96Z" fill="#91B3FA"/>
<path opacity="0.302" d="M93.2325 135.746C92.8511 136.274 92.1143 136.393 91.5846 136.011C91.0579 135.63 90.939 134.895 91.3189 134.365C92.0448 133.359 92.7399 132.306 93.3916 131.227C93.7252 130.669 94.4527 130.488 95.0118 130.825C95.5693 131.162 95.7485 131.886 95.4118 132.444C95.1292 132.913 94.8403 133.375 94.5453 133.829C94.1237 134.479 93.682 135.123 93.2325 135.746ZM96.8003 127.344C96.2026 127.086 95.9261 126.392 96.184 125.793C96.6798 124.646 97.1308 123.462 97.5277 122.281C97.7316 121.663 98.4019 121.33 99.0197 121.537C99.6375 121.743 99.9711 122.412 99.7641 123.03C99.3471 124.275 98.8714 125.518 98.3509 126.728C98.3231 126.789 98.2922 126.85 98.2552 126.904C97.9478 127.378 97.3362 127.574 96.8003 127.344ZM89.1227 140.686C88.2161 141.636 87.257 142.56 86.2701 143.431C85.782 143.862 85.036 143.817 84.6051 143.329C84.1742 142.841 84.2205 142.095 84.707 141.664C85.6445 140.836 86.5558 139.959 87.4161 139.059C87.8655 138.588 88.613 138.569 89.0841 139.02C89.5011 139.417 89.5613 140.047 89.2586 140.513C89.22 140.575 89.1737 140.632 89.1227 140.686ZM100.005 117.748C99.3641 117.627 98.9425 117.011 99.0629 116.372C99.2931 115.144 99.4738 113.893 99.6004 112.651C99.6653 112.003 100.244 111.53 100.893 111.596C101.54 111.663 102.013 112.24 101.946 112.889C101.814 114.196 101.624 115.515 101.381 116.806C101.352 116.962 101.293 117.105 101.213 117.232C100.96 117.62 100.488 117.839 100.005 117.748ZM81.1764 147.343C80.0844 148.071 78.9462 148.759 77.7924 149.393C77.221 149.706 76.5043 149.498 76.1908 148.928C75.8773 148.356 76.0858 147.64 76.6572 147.326C77.7523 146.724 78.8334 146.069 79.8713 145.379C80.4134 145.019 81.1455 145.165 81.5069 145.709C81.7756 146.114 81.7617 146.622 81.5131 147.005C81.4281 147.136 81.3154 147.252 81.1764 147.343ZM71.9636 152.097C70.7373 152.568 69.4754 152.993 68.2151 153.359C67.5881 153.54 66.9348 153.181 66.7525 152.556C66.5703 151.929 66.9301 151.274 67.5557 151.093C68.7542 150.746 69.9527 150.341 71.1188 149.895C71.7273 149.661 72.4099 149.966 72.6432 150.573C72.7837 150.94 72.7296 151.334 72.5304 151.64C72.3991 151.841 72.2061 152.004 71.9636 152.097ZM61.9338 154.729C60.6333 154.922 59.3082 155.061 57.9984 155.144C57.3482 155.186 56.7891 154.692 56.7474 154.042C56.7057 153.391 57.2 152.831 57.8502 152.79C59.095 152.712 60.3522 152.579 61.5894 152.395C62.2334 152.301 62.8327 152.746 62.9284 153.39C62.9717 153.686 62.9021 153.972 62.7508 154.205C62.5732 154.479 62.2828 154.678 61.9338 154.729ZM51.5688 155.112C50.2575 155.015 48.9339 154.86 47.6366 154.653C46.9941 154.551 46.5554 153.946 46.6574 153.303C46.7609 152.661 47.3647 152.221 48.0088 152.324C49.2397 152.52 50.4969 152.667 51.7433 152.758C52.392 152.806 52.8801 153.371 52.8322 154.021C52.8167 154.227 52.7503 154.415 52.6453 154.576C52.4183 154.925 52.0136 155.144 51.5688 155.112ZM41.3675 153.204C40.1134 152.823 38.8578 152.381 37.6361 151.893C37.0307 151.651 36.7357 150.965 36.9781 150.359C37.2191 149.757 37.9064 149.461 38.5118 149.702C39.6717 150.166 40.864 150.585 42.0564 150.948C42.6788 151.138 43.0309 151.797 42.841 152.421C42.807 152.529 42.7607 152.63 42.702 152.719C42.4224 153.15 41.8834 153.362 41.3675 153.204ZM31.8443 149.11C31.0026 148.633 30.1655 148.125 29.3562 147.6C29.0627 147.408 28.7739 147.215 28.4851 147.019C27.9476 146.653 27.7932 145.919 28.1746 145.38C28.5422 144.843 29.2758 144.704 29.8149 145.07C30.0867 145.255 30.3632 145.44 30.6412 145.621C31.4119 146.121 32.2073 146.603 33.0073 147.057C33.5741 147.379 33.7734 148.098 33.4521 148.665C33.4398 148.685 33.4274 148.707 33.4135 148.727C33.0768 149.246 32.3895 149.419 31.8443 149.11Z" fill="#91B3FA"/>
<path opacity="0.302" d="M101.018 107.653C100.367 107.678 99.8198 107.168 99.7966 106.518C99.7734 105.913 99.7395 105.295 99.6916 104.683C99.6406 104.035 100.127 103.468 100.776 103.417C101.426 103.366 101.993 103.851 102.044 104.501C102.093 105.145 102.13 105.794 102.153 106.432C102.163 106.683 102.092 106.92 101.963 107.117C101.763 107.428 101.417 107.639 101.018 107.653Z" fill="#91B3FA"/>
</g>
<path d="M89.6246 100.997C89.6972 101.22 89.6184 101.466 89.43 101.607L84.0568 105.625C84.307 108.748 84.0614 111.935 83.2784 115.062L87.9149 119.907C88.0786 120.077 88.1141 120.332 88.0076 120.54L84.324 127.696C84.2159 127.906 83.9873 128.023 83.7556 127.989L77.119 127.032C75.0278 129.487 72.5783 131.539 69.8909 133.151L69.7441 139.859C69.738 140.093 69.5851 140.3 69.3611 140.371L61.6959 142.827C61.4719 142.9 61.2279 142.821 61.0874 142.632L57.0686 137.259C53.9442 137.509 50.7595 137.264 47.6304 136.481L42.7869 141.117C42.617 141.28 42.3622 141.317 42.1521 141.208L34.9966 137.526C34.7881 137.418 34.6691 137.19 34.7031 136.957L35.6607 130.32C33.205 128.23 31.1539 125.781 29.543 123.093L22.8338 122.945C22.5991 122.94 22.3936 122.786 22.3211 122.562L19.8653 114.898C19.7943 114.674 19.8731 114.429 20.0599 114.288L25.4332 110.27C25.183 107.147 25.4285 103.96 26.2116 100.833L21.5751 95.9878C21.4129 95.8179 21.3758 95.5646 21.4839 95.3546L25.1675 88.199C25.2741 87.989 25.5027 87.8716 25.7359 87.9056L32.3725 88.8631C34.4637 86.4074 36.9132 84.3564 39.6006 82.7439L39.7474 76.0363C39.752 75.8015 39.9064 75.5961 40.1304 75.5235L47.7941 73.0678C48.018 72.9968 48.2636 73.074 48.4041 73.2624L52.4229 78.6356C55.5458 78.3854 58.732 78.631 61.8596 79.4141L66.7046 74.7775C66.8745 74.6154 67.1293 74.5783 67.3379 74.6864L74.495 78.3685C74.7035 78.4766 74.8208 78.7051 74.7884 78.9384L73.8308 85.575C76.285 87.6646 78.3376 90.1142 79.9485 92.8016L86.6561 92.9498C86.8909 92.9545 87.0979 93.1089 87.1689 93.3329L89.6246 100.997Z" fill="#91B3FA"/>
<path fill-rule="evenodd" clip-rule="evenodd" d="M60.814 113.298C57.8641 116.644 52.741 116.967 49.3957 114.015C47.774 112.586 46.8072 110.613 46.6713 108.455C46.5353 106.299 47.2473 104.218 48.6775 102.598C51.6275 99.2514 56.749 98.9302 60.0958 101.88C63.14 104.563 63.6806 109.045 61.5322 112.352C61.3191 112.679 61.0797 112.996 60.814 113.298ZM48.5555 108.338C48.659 109.99 49.4003 111.505 50.6437 112.6C53.209 114.861 57.1366 114.616 59.3977 112.05C61.6619 109.485 61.4133 105.558 58.8479 103.295C56.2825 101.034 52.3549 101.281 50.0923 103.846C49.8884 104.078 49.7031 104.323 49.5363 104.578C48.8165 105.687 48.4706 106.992 48.5555 108.338Z" fill="#BDD0FB"/>
<path d="M60.6487 126.93C55.589 128.55 50.2004 128.104 45.4758 125.673C44.8642 125.358 44.2742 125.015 43.7059 124.646C39.8786 122.157 37.0476 118.461 35.636 114.057C34.0143 108.995 34.4606 103.608 36.8916 98.8837C41.9096 89.1334 53.9287 85.28 63.6821 90.2995C64.2829 90.6084 64.8667 90.9482 65.4289 91.3142C67.8707 92.9004 69.9372 95.004 71.474 97.4798C71.6114 97.7022 71.5435 97.9926 71.3211 98.13C71.162 98.2304 70.9643 98.2212 70.816 98.1254C70.7589 98.0883 70.7095 98.0389 70.6724 97.9787C69.2082 95.6202 67.2406 93.6171 64.9146 92.105C64.3787 91.756 63.8226 91.4332 63.2496 91.1382C53.9596 86.358 42.5151 90.0215 37.7303 99.3162C35.4151 103.815 34.9904 108.949 36.5349 113.768C37.8786 117.964 40.5752 121.486 44.2217 123.855C44.7623 124.207 45.326 124.534 45.9083 124.834C49.2289 126.542 52.8244 127.172 56.2933 126.851C62.5299 126.275 68.3557 122.627 71.4261 116.658C72.0454 115.454 72.5366 114.189 72.8841 112.895C72.952 112.643 73.2115 112.494 73.4617 112.562C73.5111 112.576 73.5575 112.596 73.5976 112.622C73.7644 112.73 73.8494 112.937 73.7953 113.139C73.7752 113.216 73.7536 113.294 73.732 113.371C73.7212 113.41 73.7104 113.45 73.698 113.488C73.6949 113.502 73.6903 113.516 73.6857 113.53C73.3891 114.548 73.0107 115.546 72.5536 116.508C72.4609 116.704 72.3651 116.897 72.2663 117.088C71.9512 117.7 71.6083 118.289 71.2392 118.857C68.7526 122.686 65.0551 125.518 60.6487 126.93Z" fill="#BDD0FB"/>
<g opacity="0.302">
<path opacity="0.302" d="M132.868 56.4353C132.563 56.6979 132.102 56.6624 131.841 56.3565C131.457 55.9087 131.054 55.4669 130.644 55.0437C130.365 54.7549 130.369 54.2916 130.661 54.0136C130.95 53.734 131.412 53.7418 131.691 54.0306C132.121 54.4754 132.544 54.9387 132.947 55.4082C133.162 55.66 133.176 56.0152 133.004 56.2793C132.967 56.3365 132.922 56.389 132.868 56.4353Z" fill="#91B3FA"/>
<path opacity="0.302" d="M128.938 52.4397C128.684 52.7517 128.226 52.8027 127.912 52.5494C127.121 51.9131 126.289 51.3092 125.438 50.7563C125.259 50.6389 125.077 50.5246 124.893 50.4103C124.551 50.1987 124.446 49.7493 124.658 49.4079C124.873 49.0929 125.319 48.9616 125.662 49.1732C125.853 49.2921 126.043 49.4126 126.232 49.5346C127.125 50.1138 127.997 50.747 128.827 51.4158C129.12 51.6505 129.182 52.0691 128.981 52.378C128.967 52.3996 128.953 52.4197 128.938 52.4397ZM121.637 48.6558C120.519 48.1384 119.36 47.6859 118.191 47.3105C117.807 47.1885 117.597 46.7777 117.72 46.3947C117.842 46.0132 118.253 45.8001 118.636 45.9236C119.861 46.3159 121.076 46.7901 122.249 47.3337C122.613 47.5021 122.772 47.9345 122.604 48.3006C122.588 48.333 122.571 48.3639 122.553 48.3917C122.358 48.6913 121.969 48.8087 121.637 48.6558ZM114.603 46.4024C113.396 46.1754 112.16 46.0225 110.932 45.9468C110.531 45.9221 110.225 45.5761 110.25 45.1745C110.276 44.7714 110.62 44.4672 111.022 44.4919C112.31 44.5707 113.606 44.7328 114.872 44.9707C115.268 45.0448 115.529 45.4263 115.454 45.8217C115.436 45.9174 115.4 46.0055 115.349 46.0827C115.193 46.3236 114.903 46.458 114.603 46.4024ZM107.232 45.9468C106.004 46.024 104.768 46.1769 103.562 46.4024C103.167 46.4765 102.785 46.2171 102.711 45.8217C102.638 45.4263 102.898 45.0448 103.293 44.9707C104.558 44.7328 105.854 44.5722 107.142 44.4934C107.544 44.4672 107.89 44.773 107.914 45.1745C107.924 45.3367 107.88 45.4896 107.798 45.6163C107.676 45.8031 107.473 45.9329 107.232 45.9468ZM99.9726 47.3044C98.8004 47.6766 97.6405 48.126 96.5238 48.6388C96.1578 48.8056 95.7253 48.645 95.557 48.2789C95.3902 47.9144 95.5492 47.4804 95.9153 47.3136C97.086 46.7762 98.303 46.3066 99.5325 45.9159C99.9155 45.7939 100.325 46.0055 100.447 46.39C100.515 46.6063 100.478 46.8302 100.363 47.0078C100.275 47.1437 100.139 47.2519 99.9726 47.3044ZM93.2634 50.3841C92.2178 51.0296 91.2031 51.7463 90.2455 52.517C89.9335 52.7687 89.4733 52.7193 89.2215 52.4058C88.9698 52.0922 89.0192 51.6351 89.3327 51.3802C90.3351 50.574 91.4008 49.8219 92.4974 49.1438C92.8402 48.9322 93.2897 49.0388 93.4997 49.3801C93.6526 49.6288 93.6403 49.9315 93.492 50.1601C93.4349 50.2481 93.3592 50.3254 93.2634 50.3841ZM87.5134 55.0082C86.6608 55.887 85.8515 56.8338 85.1086 57.8191C84.8661 58.1389 84.4105 58.2037 84.0892 57.9612C83.768 57.7203 83.7078 57.2662 83.9456 56.9403C84.724 55.9086 85.5719 54.9171 86.4662 53.9935C86.7457 53.7047 87.2075 53.6969 87.4963 53.978C87.7512 54.2236 87.7867 54.6113 87.6014 54.897C87.5751 54.9356 87.5458 54.9727 87.5134 55.0082ZM80.4659 64.604C80.0952 64.4465 79.9222 64.0202 80.0782 63.6495C80.5138 62.624 81.0111 61.6046 81.5563 60.6208C81.6397 60.471 81.7231 60.3243 81.8081 60.176C81.998 59.8239 82.4552 59.708 82.8042 59.9104C83.1517 60.1127 83.2707 60.5575 83.0699 60.9065C82.9896 61.044 82.9108 61.183 82.832 61.3266C82.31 62.2672 81.8343 63.2387 81.4204 64.2179C81.4034 64.2581 81.3833 64.2951 81.3602 64.3306C81.1717 64.621 80.7964 64.7446 80.4659 64.604Z" fill="#91B3FA"/>
</g>
<g opacity="0.302">
<path opacity="0.302" d="M135.204 93.4132C134.498 94.4696 133.722 95.4905 132.898 96.4496C132.635 96.7539 132.175 96.7894 131.869 96.5268C131.563 96.2643 131.534 95.8056 131.792 95.4998C132.58 94.5854 133.319 93.6109 133.993 92.6039C134.217 92.2687 134.669 92.1791 135.003 92.4031C135.335 92.6239 135.426 93.0718 135.21 93.4054C135.208 93.407 135.205 93.4101 135.204 93.4132ZM136.15 90.4385C135.792 90.2578 135.648 89.8192 135.831 89.4608C136.377 88.3813 136.865 87.2569 137.279 86.1202C137.417 85.7448 137.834 85.5472 138.214 85.6862C138.591 85.8236 138.785 86.2406 138.648 86.619C138.214 87.8098 137.704 88.9882 137.13 90.1188C137.117 90.1435 137.105 90.1651 137.091 90.1868C136.89 90.4957 136.487 90.6099 136.15 90.4385ZM130.237 99.1864C129.296 100.041 128.295 100.844 127.262 101.576C126.935 101.807 126.479 101.73 126.247 101.403C126.014 101.074 126.091 100.621 126.42 100.386C127.406 99.6884 128.359 98.9223 129.257 98.1068C129.555 97.8365 130.016 97.8597 130.286 98.1562C130.513 98.4064 130.533 98.7725 130.357 99.0428C130.325 99.0953 130.283 99.1432 130.237 99.1864ZM138.858 83.5054C138.466 83.4142 138.222 83.0235 138.311 82.6312C138.583 81.4527 138.785 80.245 138.91 79.0418C138.954 78.6418 139.312 78.3514 139.71 78.3931C140.11 78.4348 140.402 78.7932 140.359 79.1932C140.228 80.455 140.016 81.7215 139.732 82.9586C139.712 83.0436 139.678 83.1223 139.632 83.1918C139.471 83.442 139.164 83.5749 138.858 83.5054ZM124.023 103.585C122.907 104.187 121.742 104.726 120.562 105.19C120.187 105.337 119.765 105.151 119.618 104.776C119.47 104.402 119.655 103.979 120.031 103.832C121.157 103.39 122.267 102.876 123.331 102.302C123.685 102.112 124.127 102.243 124.318 102.598C124.448 102.841 124.428 103.125 124.287 103.341C124.222 103.44 124.133 103.525 124.023 103.585ZM116.934 106.365C115.705 106.683 114.444 106.929 113.189 107.096C112.79 107.15 112.424 106.869 112.372 106.47C112.318 106.072 112.599 105.706 112.997 105.652C114.194 105.493 115.396 105.258 116.57 104.955C116.959 104.855 117.357 105.088 117.458 105.479C117.51 105.684 117.47 105.893 117.362 106.058C117.266 106.205 117.118 106.319 116.934 106.365ZM109.383 107.369C108.112 107.383 106.829 107.32 105.571 107.179C105.171 107.134 104.883 106.774 104.927 106.374C104.972 105.974 105.332 105.687 105.732 105.732C106.932 105.865 108.155 105.926 109.366 105.911C109.769 105.908 110.098 106.229 110.103 106.632C110.104 106.782 110.061 106.921 109.985 107.037C109.857 107.235 109.636 107.366 109.383 107.369Z" fill="#91B3FA"/>
<path opacity="0.302" d="M139.811 76.0889C139.408 76.0966 139.076 75.7754 139.068 75.3738C139.057 74.7792 139.029 74.1815 138.983 73.5992C138.952 73.1976 139.253 72.8486 139.653 72.8162C140.055 72.7853 140.404 73.0849 140.436 73.4865C140.484 74.0965 140.514 74.7236 140.524 75.346C140.527 75.4974 140.484 75.6379 140.409 75.7568C140.28 75.953 140.061 76.0827 139.811 76.0889Z" fill="#91B3FA"/>
</g>
<path d="M132.187 71.1356C132.235 71.2854 132.183 71.4491 132.056 71.5433L128.46 74.2323C128.629 76.3235 128.464 78.4548 127.94 80.5476L131.043 83.7895C131.151 83.9037 131.176 84.0736 131.103 84.2126L128.64 89.0021C128.567 89.1426 128.414 89.2214 128.258 89.1982L123.818 88.5572C122.418 90.2006 120.78 91.5736 118.982 92.6516L118.883 97.1399C118.878 97.2974 118.777 97.4349 118.627 97.4828L113.498 99.1261C113.348 99.1755 113.184 99.123 113.09 98.9963L110.401 95.4008C108.311 95.5692 106.178 95.4039 104.086 94.8803L100.844 97.9832C100.731 98.0913 100.559 98.116 100.42 98.0434L95.6311 95.58C95.4921 95.5074 95.4133 95.3545 95.4349 95.1985L96.0759 90.7581C94.4325 89.3588 93.061 87.7201 91.9815 85.9208L87.4932 85.8235C87.3357 85.8189 87.1982 85.717 87.1503 85.5671L85.507 80.4379C85.4591 80.2881 85.5117 80.1244 85.6368 80.0302L89.2323 77.3413C89.0655 75.2516 89.2292 73.1187 89.7528 71.0259L86.6515 67.7841C86.5418 67.6713 86.5171 67.4999 86.5897 67.3609L89.0547 62.5715C89.1257 62.4325 89.2786 62.3537 89.4346 62.3753L93.875 63.0163C95.2743 61.373 96.9145 59.9999 98.7123 58.9219L98.8111 54.4336C98.8142 54.2761 98.9177 54.1387 99.0675 54.0908L104.195 52.4475C104.345 52.3996 104.509 52.4521 104.603 52.5772L107.292 56.1727C109.383 56.0059 111.514 56.1696 113.607 56.6932L116.849 53.5919C116.963 53.4822 117.133 53.4575 117.274 53.5301L122.062 55.9936C122.202 56.0662 122.281 56.2191 122.258 56.375L121.617 60.8154C123.26 62.2147 124.633 63.8534 125.711 65.6527L130.199 65.7516C130.357 65.7546 130.494 65.8581 130.544 66.0079L132.187 71.1356Z" fill="#91B3FA"/>
<path fill-rule="evenodd" clip-rule="evenodd" d="M112.98 79.4311C112.007 80.5354 110.662 81.1949 109.193 81.2876C107.724 81.3802 106.306 80.8937 105.202 79.9207C102.924 77.9113 102.705 74.4285 104.713 72.1427C106.723 69.8631 110.212 69.6438 112.491 71.6531C113.595 72.6277 114.254 73.9714 114.347 75.4417C114.421 76.6356 114.115 77.7955 113.474 78.7809C113.328 79.0064 113.162 79.2241 112.98 79.4311ZM106.166 78.8272C106.978 79.5438 108.021 79.9006 109.102 79.8327C110.182 79.7647 111.172 79.2797 111.887 78.4673C112.602 77.655 112.96 76.614 112.892 75.5328C112.824 74.4517 112.339 73.4632 111.527 72.7466C109.851 71.2685 107.284 71.4292 105.806 73.1065C105.673 73.2578 105.553 73.4154 105.446 73.5806C104.37 75.2363 104.64 77.4835 106.166 78.8272Z" fill="#BDD0FB"/>
<path d="M102.455 88.0151C102.033 87.7973 101.625 87.561 101.233 87.3062C98.5934 85.5903 96.6396 83.0403 95.6666 80.0008C94.5469 76.5088 94.8557 72.7928 96.533 69.5324C98.2088 66.2704 101.057 63.8626 104.547 62.7444C108.038 61.6247 111.755 61.9336 115.016 63.6109C115.43 63.824 115.833 64.0572 116.222 64.3105C117.905 65.4055 119.331 66.8573 120.391 68.5655C120.604 68.9069 120.497 69.3548 120.156 69.5679C119.909 69.7223 119.604 69.7084 119.376 69.5602C119.288 69.5046 119.212 69.4274 119.153 69.3331C118.207 67.8072 116.932 66.5098 115.427 65.5307C115.079 65.3052 114.719 65.0966 114.349 64.9067C111.436 63.407 108.112 63.1321 104.992 64.1314C101.872 65.1322 99.3285 67.2898 97.8289 70.1996C96.3292 73.1125 96.0543 76.4346 97.0535 79.556C97.9246 82.2727 99.6699 84.5524 102.03 86.086C102.38 86.3146 102.745 86.5262 103.122 86.7193C106.035 88.219 109.358 88.4939 112.478 87.4946C112.504 87.4853 112.531 87.4776 112.557 87.4683C112.566 87.4653 112.576 87.4622 112.583 87.4606C113.647 87.1085 114.645 86.622 115.555 86.0165C117.229 84.8999 118.611 83.3817 119.575 81.553C119.597 81.5113 119.62 81.4681 119.641 81.4248C120.041 80.6495 120.36 79.8294 120.585 78.9907C120.692 78.6031 121.09 78.3714 121.478 78.4764C121.554 78.4965 121.625 78.5274 121.686 78.5691C121.944 78.7359 122.077 79.0556 121.992 79.3691C121.981 79.4093 121.971 79.4494 121.96 79.4896C121.71 80.3869 121.365 81.2626 120.937 82.092C120.721 82.5106 120.488 82.9137 120.238 83.2998C116.451 89.1271 108.765 91.2616 102.455 88.0151Z" fill="#BDD0FB"/>
<path d="M284.777 147.638L259.364 154.426L280.549 132.755L284.777 147.638Z" fill="#91B3FA"/>
<path d="M406.609 141.726L286.23 147.567C283.138 147.717 280.549 145.252 280.549 142.157V92.6314C280.549 87.2489 284.826 82.8394 290.205 82.6726L398.699 79.3149C406.778 79.3149 413.328 85.8651 413.328 93.9442V134.674C413.328 138.439 410.372 141.542 406.609 141.726Z" fill="#91B3FA"/>
<path opacity="0.851" fill-rule="evenodd" clip-rule="evenodd" d="M289.83 145.579C287.912 145.579 286.103 144.855 284.704 143.522C283.218 142.103 282.4 140.191 282.4 138.135V93.4996C282.4 88.2391 286.616 83.9918 292 83.8281L397.046 80.6558C405.008 80.6558 411.479 86.9742 411.479 94.7398V133.222C411.479 136.926 408.512 139.967 404.725 140.146L290.193 145.57C290.073 145.576 289.951 145.579 289.83 145.579ZM397.054 81.1778L292.016 84.3501C286.916 84.5046 282.92 88.5233 282.92 93.4996V138.135C282.92 140.045 283.682 141.825 285.066 143.144C286.448 144.463 288.26 145.142 290.17 145.048L404.701 139.624C408.21 139.459 410.957 136.646 410.957 133.222V94.7398C410.957 87.2615 404.721 81.1778 397.054 81.1778Z" fill="white"/>
<path d="M398.45 91.4576L398.49 92.3905C398.521 93.1257 397.777 93.7527 396.83 93.7867L300.569 97.3019C299.635 97.3359 298.855 96.7783 298.824 96.0524L298.788 95.206C298.756 94.4724 299.5 93.8454 300.445 93.8098L396.703 90.2082C397.639 90.1726 398.419 90.7302 398.45 91.4576Z" fill="url(#paint5_linear_310_80)"/>
<path d="M389.838 115.874L389.88 116.841C389.912 117.602 389.168 118.249 388.223 118.283L291.96 121.777C291.026 121.811 290.244 121.232 290.213 120.48L290.175 119.604C290.142 118.844 290.885 118.195 291.83 118.16L388.088 114.577C389.024 114.541 389.806 115.12 389.838 115.874Z" fill="url(#paint6_linear_310_80)"/>
<path d="M401.28 126.074L401.321 127.05C401.354 127.818 400.521 128.476 399.466 128.514L292.156 132.474C291.114 132.513 290.246 131.932 290.213 131.172L290.176 130.287C290.142 129.52 290.975 128.862 292.028 128.822L399.335 124.77C400.378 124.732 401.247 125.312 401.28 126.074Z" fill="url(#paint7_linear_310_80)"/>
<path d="M344.925 106.075L344.979 107.16C345.02 108.015 344.634 108.722 344.118 108.736L291.65 110.163C291.14 110.177 290.695 109.508 290.653 108.663L290.606 107.679C290.562 106.827 290.948 106.119 291.463 106.104L343.927 104.575C344.438 104.56 344.883 105.23 344.925 106.075Z" fill="url(#paint8_linear_310_80)"/>
<path d="M402.683 104.263L402.737 105.349C402.779 106.203 402.418 106.91 401.93 106.923L352.337 108.242C351.855 108.255 351.432 107.585 351.39 106.74L351.34 105.756C351.299 104.904 351.66 104.197 352.147 104.183L401.737 102.762C402.219 102.748 402.642 103.418 402.683 104.263Z" fill="url(#paint9_linear_310_80)"/>
<path d="M102.387 415.627L128.552 427.653C129.202 427.951 129.713 428.49 129.979 429.155C130.295 429.951 129.736 430.825 128.882 430.864C123.198 431.117 107.358 430.518 99.954 430.209C97.7732 430.118 96.099 428.23 96.289 426.057C96.6133 422.351 97.106 418.625 97.7671 414.88L102.387 415.627Z" fill="url(#paint10_linear_310_80)"/>
<path d="M103.567 410.542L105.465 418.029C103.378 419.631 100.807 419.721 97.7516 418.298L96.9547 411.58L103.567 410.542Z" fill="url(#paint11_linear_310_80)"/>
<path d="M97.5539 285.26C97.2095 287.015 95.7052 372.819 104.878 411.272C105.026 411.901 104.708 412.546 104.112 412.79C102.705 413.365 99.9463 414.197 96.6411 414.309C95.6187 414.343 94.6997 413.678 94.4109 412.696C91.7899 403.774 79.2272 359.074 77.5885 316.373C76.3668 284.565 76.3668 284.023 77.5885 314.75L78.6619 285.255L97.5539 285.26Z" fill="url(#paint12_linear_310_80)"/>
<path d="M73.5605 418.13C76.7746 421.647 77.8155 426.16 78.1491 428.91C78.3175 430.291 77.2317 431.5 75.8417 431.51C72.8269 431.531 69.063 431.222 66.6181 430.981C65.2358 430.845 64.2844 429.543 64.5608 428.181C65.5802 423.159 66.6165 419.7 67.6699 417.81L73.5605 418.13Z" fill="url(#paint13_linear_310_80)"/>
<path d="M72.742 408.773L73.6301 419.706C71.2022 420.369 69.3735 420.242 68.1457 419.33L66.283 409.169L72.742 408.773Z" fill="url(#paint14_linear_310_80)"/>
<path d="M98.3123 283.144L97.2713 298.734L83.7062 308.378C82.6112 309.156 81.8189 310.287 81.4652 311.582C74.4749 337.159 75.2178 401.877 74.8054 412.42C74.7745 413.218 74.2339 413.911 73.4663 414.135C71.2345 414.783 68.9719 414.597 67.5988 414.369C66.7895 414.236 66.1455 413.624 65.9571 412.826C62.8774 399.786 53.7495 333.165 61.251 287.893L98.3123 283.144Z" fill="url(#paint15_linear_310_80)"/>
<path d="M131.974 198.436C133.139 203.392 135.818 211.775 141.502 218.363C134.05 222.553 125.002 225.722 114.018 227.086C105.021 257.748 99.5571 278.528 97.6296 289.422C84.5417 294.325 72.1952 295.256 60.5931 292.213C56.9064 262.147 57.2972 234.081 61.7654 208.013C78.3005 203.831 94.0634 201.863 109.049 202.112C115.984 202.226 124.026 200.907 131.974 198.436Z" fill="url(#paint16_linear_310_80)"/>
<path d="M141.502 218.363C135.818 211.775 133.139 203.392 131.974 198.436C149.796 192.897 167.142 181.567 170.45 167.593C172.313 166.752 173.981 167.22 175.453 168.998C172.535 190.823 161.219 207.278 141.502 218.363Z" fill="url(#paint17_linear_310_80)"/>
<path d="M174.917 169.676C175.148 170.411 172.473 171.53 170.896 168.526C170.842 167.086 169.967 160.918 170.827 159.744C173.882 155.578 178.37 150.886 184.293 145.664C185.294 146.653 185.384 147.632 184.559 148.602L180.248 153.092C181.15 154.721 182.25 156.096 182.764 158.066C183.155 159.558 182.917 161.154 182.162 162.511C181.407 163.875 180.373 165.647 179.397 167.034C178.166 168.782 176.673 169.664 174.917 169.676Z" fill="url(#paint18_linear_310_80)"/>
<path d="M178.756 158.533C178.174 159.483 177.49 162.15 176.704 166.535L173.202 162.649L174.435 159.335L178.362 156.005C179.178 156.422 179.632 157.11 178.756 158.533Z" fill="url(#paint19_linear_310_80)"/>
<path d="M55.5674 245.263C48.5015 241.695 41.281 240.663 37.3133 240.37C39.6161 228.311 47.7663 217.526 61.7654 208.013L70.3882 229.781C61.543 234.408 56.6022 239.568 55.5674 245.263Z" fill="url(#paint20_linear_310_80)"/>
<path d="M91.8579 256.077C66.5934 274.009 49.3169 274.478 40.0269 257.486C36.8221 251.625 36.2723 245.824 37.3133 240.37C41.281 240.664 48.5014 241.695 55.5674 245.263C55.1612 247.501 55.555 249.849 57.2076 252.212C62.5098 259.796 73.0199 259.146 88.738 250.264L91.8579 256.077Z" fill="url(#paint21_linear_310_80)"/>
<path d="M85.9039 267.12L98.771 222.187C98.9177 221.677 99.3517 221.305 99.8799 221.243C102.211 220.971 108.966 220.208 116.764 219.549C126.159 218.753 137.069 218.109 143.589 218.658C144.515 218.735 145.076 219.715 144.664 220.55C140.955 228.049 125.707 258.559 118.071 268.553C117.817 268.885 117.425 269.078 117.01 269.074L87.1565 268.797C86.287 268.788 85.6661 267.956 85.9039 267.12Z" fill="#91B3FA"/>
<path d="M118.1 215.652L127.429 214.098C127.924 214.015 128.332 214.49 128.175 214.969L127.251 217.766C127.171 218.01 126.958 218.186 126.703 218.22L117.726 219.42C117.261 219.482 116.88 219.059 116.986 218.603L117.558 216.16C117.62 215.898 117.833 215.697 118.1 215.652Z" fill="#BDD0FB"/>
<path d="M111.114 223.551L111.884 219.547C111.961 219.146 112.291 218.843 112.698 218.801L131.54 216.889C132.173 216.824 132.681 217.407 132.533 218.026L131.335 223.013C131.239 223.413 130.891 223.702 130.482 223.722L112.071 224.649C111.471 224.68 111.002 224.139 111.114 223.551Z" fill="#BDD0FB"/>
<path d="M89.013 256.264C87.8191 251.351 87.4623 248.023 87.9442 246.279C88.667 243.664 90.0679 240.303 94.7368 241.049C97.8489 241.548 101.242 242.453 104.913 243.765C104.728 246.035 103.452 246.804 101.088 246.071L103.287 247.774C103.079 249.592 101.974 250.015 99.9757 249.044L102.022 251.302C101.163 252.795 100 253.062 98.53 252.105C96.3245 250.668 95.2666 257.152 89.013 256.264Z" fill="url(#paint22_linear_310_80)"/>
<path d="M100.839 183.861L98.5223 201.764C98.3879 202.801 97.7871 203.712 96.9052 204.271C88.44 209.638 81.4157 206.523 79.465 205.445C79.1484 205.269 79.0079 204.889 79.1268 204.546L86.2792 183.861H100.839Z" fill="url(#paint23_linear_310_80)"/>
<path d="M101.843 164.704C107.079 174.561 109.361 181.48 108.691 185.464C107.684 191.436 97.9493 191.007 89.4485 186.156L83.5085 170.19L101.843 164.704Z" fill="url(#paint24_linear_310_80)"/>
<path d="M88.7211 178.804C88.4291 178.934 88.2855 179.263 88.389 179.564L90.6161 186.034C90.7613 186.458 90.4169 186.899 89.9705 186.846C84.8274 186.248 80.0751 181.292 79.0202 180.125C78.8828 179.975 78.6804 179.905 78.4781 179.935C77.2487 180.111 72.9273 180.45 72.7141 176.586C72.5597 173.791 74.1011 172.779 75.2934 172.413C75.7351 172.279 75.8757 171.735 75.5544 171.404C74.5629 170.385 73.474 168.302 75.1482 164.62C77.1823 160.151 81.5392 160.448 83.354 160.794C83.7386 160.868 84.0876 160.564 84.0722 160.175C84.0228 158.848 84.4274 156.216 88.0183 154.605C91.8563 152.883 94.6194 155.723 95.6712 157.092C95.9152 157.408 96.3925 157.402 96.6365 157.086C103.049 148.761 107.069 159.208 105.539 163.362C103.97 167.624 96.5052 169.483 91.4996 170.682C88.162 171.48 86.9634 172.181 87.9056 172.784C88.2809 174.501 89.4609 176.463 90.091 177.423C90.2964 177.74 90.1698 178.163 89.8238 178.316L88.7211 178.804Z" fill="url(#paint25_linear_310_80)"/>
<path d="M92.451 182.105C89.7543 183.309 84.3101 181.859 84.7178 178.628C84.9896 176.473 86.9913 176.676 90.7196 179.233L92.451 182.105Z" fill="url(#paint26_linear_310_80)"/>
<defs>
<linearGradient id="paint0_linear_310_80" x1="306.063" y1="672.178" x2="-57.3783" y2="220.807" gradientUnits="userSpaceOnUse">
<stop stop-color="#DAE3FE"/>
<stop offset="1" stop-color="#E9EFFD"/>
</linearGradient>
<linearGradient id="paint1_linear_310_80" x1="827.837" y1="-163.45" x2="69.9856" y2="482.513" gradientUnits="userSpaceOnUse">
<stop stop-color="#E1473D"/>
<stop offset="1" stop-color="#E9605A"/>
</linearGradient>
<linearGradient id="paint2_linear_310_80" x1="902.768" y1="-121.071" x2="107.267" y2="556.984" gradientUnits="userSpaceOnUse">
<stop stop-color="#E1473D"/>
<stop offset="1" stop-color="#E9605A"/>
</linearGradient>
<linearGradient id="paint3_linear_310_80" x1="-76.4439" y1="232.453" x2="581.454" y2="-464.232" gradientUnits="userSpaceOnUse">
<stop stop-color="#FF928E"/>
<stop offset="1" stop-color="#FE7062"/>
</linearGradient>
<linearGradient id="paint4_linear_310_80" x1="326.916" y1="330.959" x2="170.344" y2="503.971" gradientUnits="userSpaceOnUse">
<stop stop-color="#FF928E"/>
<stop offset="1" stop-color="#FE7062"/>
</linearGradient>
<linearGradient id="paint5_linear_310_80" x1="298.817" y1="89.8999" x2="398.461" y2="89.8999" gradientUnits="userSpaceOnUse">
<stop stop-color="#DAE3FE"/>
<stop offset="1" stop-color="#E9EFFD"/>
</linearGradient>
<linearGradient id="paint6_linear_310_80" x1="290.205" y1="114.269" x2="389.849" y2="114.269" gradientUnits="userSpaceOnUse">
<stop stop-color="#DAE3FE"/>
<stop offset="1" stop-color="#E9EFFD"/>
</linearGradient>
<linearGradient id="paint7_linear_310_80" x1="290.207" y1="124.463" x2="401.29" y2="124.463" gradientUnits="userSpaceOnUse">
<stop stop-color="#DAE3FE"/>
<stop offset="1" stop-color="#E9EFFD"/>
</linearGradient>
<linearGradient id="paint8_linear_310_80" x1="290.641" y1="104.267" x2="344.943" y2="104.267" gradientUnits="userSpaceOnUse">
<stop stop-color="#DAE3FE"/>
<stop offset="1" stop-color="#E9EFFD"/>
</linearGradient>
<linearGradient id="paint9_linear_310_80" x1="351.376" y1="102.454" x2="402.702" y2="102.454" gradientUnits="userSpaceOnUse">
<stop stop-color="#DAE3FE"/>
<stop offset="1" stop-color="#E9EFFD"/>
</linearGradient>
<linearGradient id="paint10_linear_310_80" x1="140.647" y1="418.974" x2="45.9732" y2="521.953" gradientUnits="userSpaceOnUse">
<stop stop-color="#09005D"/>
<stop offset="1" stop-color="#1A0F91"/>
</linearGradient>
<linearGradient id="paint11_linear_310_80" x1="96.9544" y1="410.268" x2="105.465" y2="410.268" gradientUnits="userSpaceOnUse">
<stop stop-color="#FEBBBA"/>
<stop offset="1" stop-color="#FF928E"/>
</linearGradient>
<linearGradient id="paint12_linear_310_80" x1="172.18" y1="324.726" x2="93.52" y2="431.339" gradientUnits="userSpaceOnUse">
<stop stop-color="#09005D"/>
<stop offset="1" stop-color="#1A0F91"/>
</linearGradient>
<linearGradient id="paint13_linear_310_80" x1="113.028" y1="393.21" x2="17.3545" y2="497.275" gradientUnits="userSpaceOnUse">
<stop stop-color="#09005D"/>
<stop offset="1" stop-color="#1A0F91"/>
</linearGradient>
<linearGradient id="paint14_linear_310_80" x1="66.2826" y1="408.48" x2="73.6307" y2="408.48" gradientUnits="userSpaceOnUse">
<stop stop-color="#FEBBBA"/>
<stop offset="1" stop-color="#FF928E"/>
</linearGradient>
<linearGradient id="paint15_linear_310_80" x1="149.743" y1="309.681" x2="76.6575" y2="408.739" gradientUnits="userSpaceOnUse">
<stop stop-color="#09005D"/>
<stop offset="1" stop-color="#1A0F91"/>
</linearGradient>
<linearGradient id="paint16_linear_310_80" x1="62.3481" y1="210.255" x2="188.599" y2="-7.26232" gradientUnits="userSpaceOnUse">
<stop stop-color="#4F52FF"/>
<stop offset="1" stop-color="#4042E2"/>
</linearGradient>
<linearGradient id="paint17_linear_310_80" x1="153.116" y1="138.088" x2="138.348" y2="180.284" gradientUnits="userSpaceOnUse">
<stop stop-color="#FEBBBA"/>
<stop offset="1" stop-color="#FF928E"/>
</linearGradient>
<linearGradient id="paint18_linear_310_80" x1="175.726" y1="144.542" x2="161.306" y2="185.74" gradientUnits="userSpaceOnUse">
<stop stop-color="#FEBBBA"/>
<stop offset="1" stop-color="#FF928E"/>
</linearGradient>
<linearGradient id="paint19_linear_310_80" x1="172.349" y1="175.373" x2="183.659" y2="152.557" gradientUnits="userSpaceOnUse">
<stop stop-color="#FEBBBA"/>
<stop offset="1" stop-color="#FF928E"/>
</linearGradient>
<linearGradient id="paint20_linear_310_80" x1="50.3922" y1="205.082" x2="180.365" y2="-18.8478" gradientUnits="userSpaceOnUse">
<stop stop-color="#4F52FF"/>
<stop offset="1" stop-color="#4042E2"/>
</linearGradient>
<linearGradient id="paint21_linear_310_80" x1="37.3923" y1="240.157" x2="91.8572" y2="240.157" gradientUnits="userSpaceOnUse">
<stop stop-color="#FEBBBA"/>
<stop offset="1" stop-color="#FF928E"/>
</linearGradient>
<linearGradient id="paint22_linear_310_80" x1="88.2712" y1="240.662" x2="104.914" y2="240.662" gradientUnits="userSpaceOnUse">
<stop stop-color="#FEBBBA"/>
<stop offset="1" stop-color="#FF928E"/>
</linearGradient>
<linearGradient id="paint23_linear_310_80" x1="79.1611" y1="183.58" x2="100.838" y2="183.58" gradientUnits="userSpaceOnUse">
<stop stop-color="#FEBBBA"/>
<stop offset="1" stop-color="#FF928E"/>
</linearGradient>
<linearGradient id="paint24_linear_310_80" x1="98.861" y1="191.133" x2="75.7583" y2="177.042" gradientUnits="userSpaceOnUse">
<stop stop-color="#FEBBBA"/>
<stop offset="1" stop-color="#FF928E"/>
</linearGradient>
<linearGradient id="paint25_linear_310_80" x1="83.7063" y1="139.449" x2="113.398" y2="162.901" gradientUnits="userSpaceOnUse">
<stop stop-color="#09005D"/>
<stop offset="1" stop-color="#1A0F91"/>
</linearGradient>
<linearGradient id="paint26_linear_310_80" x1="97.506" y1="189.15" x2="77.013" y2="176.651" gradientUnits="userSpaceOnUse">
<stop stop-color="#FEBBBA"/>
<stop offset="1" stop-color="#FF928E"/>
</linearGradient>
</defs>
</svg>
