<svg width="60" height="60" viewBox="0 0 60 60" fill="none" xmlns="http://www.w3.org/2000/svg">
<circle cx="30" cy="30" r="29.5" fill="white" stroke="#003C92"/>
<path d="M30 16L29.489 16.2557L17.8235 21.9838L17.1667 22.3119V24.3189H42.8333V22.3119L42.1765 21.9838L30.5098 16.2557L30 16ZM30 18.627L36.8542 21.9838H23.1458L30 18.627ZM19.5 25.4865V37.1622H18.3333V39.4973H41.6667V37.1622H40.5V25.4865H38.1667V37.1622H35.8333V25.4865H33.5V37.1622H31.1667V25.4865H28.8333V37.1622H26.5V25.4865H24.1667V37.1622H21.8333V25.4865H19.5ZM16 40.6649V43H44V40.6649H16Z" fill="#003C92"/>
</svg>
