<svg width="18" height="18" viewBox="0 0 18 18" fill="none" xmlns="http://www.w3.org/2000/svg">
<g clip-path="url(#clip0_22_12)">
<path d="M18 3.41772C17.3377 3.71172 16.626 3.90972 15.879 3.99897C16.6418 3.54222 17.2275 2.81847 17.5028 1.95597C16.7895 2.37897 15.999 2.68647 15.1575 2.85222C14.4847 2.13447 13.524 1.68597 12.462 1.68597C10.0777 1.68597 8.32575 3.91047 8.86425 6.21972C5.796 6.06597 3.075 4.59597 1.25325 2.36172C0.28575 4.02147 0.7515 6.19272 2.3955 7.29222C1.791 7.27272 1.221 7.10697 0.72375 6.83022C0.68325 8.54097 1.9095 10.1415 3.6855 10.4977C3.16575 10.6387 2.5965 10.6717 2.0175 10.5607C2.487 12.0277 3.8505 13.095 5.4675 13.125C3.915 14.3422 1.959 14.886 0 14.655C1.63425 15.7027 3.576 16.314 5.661 16.314C12.5175 16.314 16.3912 10.5232 16.1572 5.32947C16.8787 4.80822 17.505 4.15797 18 3.41772Z" fill="#65CFF4"/>
</g>
<defs>
<clipPath id="clip0_22_12">
<rect width="18" height="18" fill="white"/>
</clipPath>
</defs>
</svg>
