<svg version="1.2" baseProfile="tiny-ps" xmlns="http://www.w3.org/2000/svg" viewBox="0 0 1500 1000" width="1500" height="1000">
	<title>5162412-ai</title>
	<style>
		tspan { white-space:pre }
		.shp0 { fill: #d8d8d8 } 
		.shp1 { fill: #bedcfa } 
		.shp2 { fill: #b088f9 } 
		.shp3 { fill: #da9ff9 } 
		.shp4 { fill: #98acf8 } 
		.shp5 { fill: none;stroke: #ffffff;stroke-linecap:round;stroke-linejoin:round;stroke-width: 2 } 
	</style>
	<g id="BACKGROUND">
	</g>
	<g id="OBJECTS">
		<g id="&lt;Group&gt;">
			<path id="&lt;Compound Path&gt;" fill-rule="evenodd" class="shp0" d="M1038.31 487.79C1031.34 493.41 1020.28 489.03 1013.83 484.79C1007.25 480.47 1002.42 474.49 999.52 467.75C988.92 471.07 979.85 478.65 975.53 489.53C969 505.94 976.64 524.66 992.58 532.12C993.18 532.4 992.92 533.38 992.26 533.14C969.97 524.96 965.24 496.76 979.11 479.05C984.19 472.57 991.11 468.08 998.7 465.68C995 455.5 995.61 443.86 1001.22 433.68C1010.95 416.02 1033.39 409.52 1051.39 418.06C1052.36 418.52 1051.56 420.2 1050.58 419.77C1033.29 412.15 1012.33 417.9 1003.04 434.86C997.79 444.45 997.26 455.45 1000.83 465.07C1011.5 462.29 1023.28 463.5 1033.16 468.93C1039.6 472.47 1045.75 481.79 1038.31 487.79ZM1038.4 484.45C1042.57 477.97 1034.97 472.13 1029.91 469.8C1026.08 468.03 1022.02 466.89 1017.85 466.28C1012.38 465.49 1006.87 465.81 1001.66 467.14C1004.13 472.7 1008 477.72 1013.18 481.6C1018.81 485.82 1033.03 492.81 1038.4 484.45Z" />
			<path id="&lt;Compound Path&gt;" fill-rule="evenodd" class="shp0" d="M420.16 522.38C420.65 513.44 431.31 508.16 438.77 506.2C446.39 504.21 454.07 504.62 461.01 506.98C465.65 496.88 466.09 485.07 460.9 474.58C453.07 458.74 434.06 451.88 417.84 458.73C417.23 458.99 416.67 458.14 417.3 457.81C438.29 446.73 462.41 462.09 466.28 484.25C467.7 492.37 466.4 500.5 463.1 507.75C473.14 511.82 481.39 520.06 485.19 531.05C491.8 550.1 481.6 571.12 463.21 578.77C462.22 579.19 461.51 577.46 462.48 577.03C479.72 569.29 489.47 549.86 483.09 531.61C479.48 521.29 471.67 513.53 462.13 509.74C457.06 519.53 448.27 527.48 437.62 531.18C430.68 533.6 419.64 531.92 420.16 522.38ZM422.58 524.68C424.61 532.12 434.04 530.38 439.15 528.18C443.02 526.52 446.6 524.27 449.84 521.58C454.08 518.05 457.54 513.74 460.04 508.98C454.25 507.08 447.93 506.61 441.58 507.86C434.67 509.21 419.97 515.1 422.58 524.68Z" />
			<path id="&lt;Compound Path&gt;" fill-rule="evenodd" class="shp0" d="M893.2 763.13C895.25 792.35 876.75 818.24 852.92 833.47C840.29 841.55 824.47 848.11 809.23 844.94C805.14 844.09 801.33 842.5 797.85 840.36C756.51 868.17 687.9 857.21 671.62 806.28C658.8 806.08 645.94 801.89 635.76 794.36C614 778.24 604.34 750.8 603.8 724.54C603.78 723.17 605.9 723.3 605.93 724.67C606.44 749.31 615.14 774.96 634.8 790.92C644.88 799.11 657.91 803.76 670.97 804.12C670.8 803.53 670.63 802.95 670.48 802.35C667.41 790.38 667.77 776.57 674.86 766.02C680.77 757.22 691.91 750.87 702.71 753.37C711.37 755.38 719.02 763.08 719.48 772.21C719.99 782.41 711.6 791.53 703.79 796.95C695.03 803.04 684.6 806.02 674.03 806.27C676.44 813.16 679.94 819.58 683.93 824.75C709.33 857.6 762.11 862.11 796.02 839.16C789.62 834.7 784.53 828.31 781.27 821.17C776.57 810.86 774.71 797.05 781.4 787.12C786.88 779 797.12 774.96 806.21 779.47C829.73 791.13 819.43 823.16 803.6 836.1C802.48 837.02 801.32 837.9 800.14 838.76C803.97 841.11 808.04 842.72 812.09 843.28C833.24 846.19 855.41 831.78 869.47 817.24C883.62 802.61 892.52 783.59 891.07 763C890.98 761.64 893.11 761.78 893.2 763.13ZM673.33 804.14C682.16 804.03 690.93 801.95 698.74 797.6C709.13 791.81 721.83 779.06 715.77 766.21C709.56 753.06 692.81 752.44 682.42 760.83C669.34 771.39 668.5 788.7 673.33 804.14ZM798.31 837.57C800.35 836.07 802.33 834.48 804.22 832.77C813.57 824.28 819.84 811.86 817.41 798.99C814.67 784.54 798.72 772.85 786.13 784.79C770.07 800.03 781.47 825.96 798.31 837.57Z" />
			<path id="&lt;Path&gt;" class="shp1" d="M1045.77 195.87C1055.61 192.86 1068.95 197.42 1077.11 202.77C1085.2 208.05 1091.88 217.3 1090.08 226.79C1088.54 234.98 1081.31 240.78 1074.17 245.08C1070.82 247.09 1067.29 248.98 1063.43 249.56C1055.72 250.72 1048.21 246.47 1042.34 241.35C1039.82 239.14 1037.41 236.68 1035.98 233.65C1034.26 230 1034.09 225.81 1034.34 221.78C1034.85 213.67 1036.39 198.73 1045.77 195.87Z" />
			<path id="&lt;Path&gt;" class="shp2" d="M479.34 440.49C480.67 435.71 481.96 428.59 485.07 424.58C489.67 418.65 499.46 421.21 505.57 422.83C518.96 426.4 534.24 433.13 536.42 448.68C537.79 458.53 532.42 464 523.89 467.7C513.31 472.29 498.87 477.88 487.3 474.1C481.09 472.07 478 466.69 477.23 460.43C477.14 459.69 477.07 458.95 477.03 458.21C476.66 452.22 477.74 446.25 479.34 440.49Z" />
			<path id="&lt;Path&gt;" class="shp3" d="M341.52 197.6C347.48 200.08 353.69 202.42 358.17 207.31C360.84 210.23 362.02 214 360.87 217.88C359.3 223.17 355.38 227.39 351.63 231.27C344.64 238.52 330.31 231.14 323.59 226.83C317.31 222.81 313.07 216.94 315.33 209.29C316.04 206.89 317.12 204.61 318.51 202.54C319.81 200.61 321.41 198.85 323.39 197.62C328.86 194.23 335.91 195.27 341.52 197.6Z" />
			<g id="&lt;Group&gt;">
				<g id="&lt;Group&gt;">
					<path id="&lt;Path&gt;" class="shp4" d="M1050.7 548.94C1065.56 560.83 1078.87 575.9 1085.75 594.52C1098.44 628.82 1086.61 669.44 1064.21 697.25C1013.7 759.97 921.25 786.03 847.21 771.02C823.1 766.13 799.33 753.64 785.05 731.93C774.93 716.53 770.24 697.55 768.81 678.69C765.28 632.32 781.33 584.61 811.53 551.66C815.89 546.9 820.46 542.53 825.22 538.53C889.45 484.54 987.48 498.36 1050.7 548.94Z" />
					<path id="&lt;Path&gt;" class="shp5" d="M1074.13 641.67C1073.03 652.02 1070.42 663.19 1065.89 675.2" />
					<path id="&lt;Path&gt;" class="shp5" d="M1015.4 537.09C1046.84 552.32 1065.98 576.78 1072.8 610.47" />
				</g>
			</g>
			<g id="&lt;Group&gt;">
			</g>
			<g id="&lt;Group&gt;">
				<g id="&lt;Group&gt;">
					<g id="&lt;Group&gt;">
						<path id="&lt;Path&gt;" class="shp3" d="M429.4 352.55C439.87 382.32 441.75 416.02 429.4 445.06C410.43 489.69 360.32 515.61 311.83 516.46C235.54 517.8 113.88 460.5 134.47 366.32C143.28 326 181.12 288.37 215.2 267.18C304.66 211.55 396.08 257.73 429.4 352.55Z" />
						<path id="&lt;Path&gt;" class="shp5" d="M274.68 504C321.35 510.67 354.68 505.33 374.68 488" />
						<path id="&lt;Path&gt;" class="shp5" d="M421.84 437.03C424.93 429.63 427.18 421.5 427.68 413" />
						<path id="&lt;Path&gt;" class="shp5" d="M395.68 475C400.9 470.13 406.15 463.8 411.43 456.02" />
					</g>
					<g id="&lt;Group&gt;">
					</g>
				</g>
			</g>
			<g id="&lt;Group&gt;">
				<g id="&lt;Group&gt;">
					<g id="&lt;Group&gt;">
						<path id="&lt;Path&gt;" class="shp1" d="M1289.38 314.46C1301.65 341.58 1306.18 373.1 1296.95 401.41C1282.78 444.9 1237.81 473.37 1192.31 478.14C1120.71 485.65 1001.69 441.77 1013.32 351.57C1018.3 312.95 1050.78 274.49 1081.07 251.78C1160.59 192.16 1250.29 228.08 1289.38 314.46Z" />
						<path id="&lt;Path&gt;" class="shp5" d="M1051.83 417.49C1057.49 423.65 1064.4 429.72 1072.8 435.56" />
						<path id="&lt;Path&gt;" class="shp5" d="M1033.48 327.41C1022.01 352.72 1024.7 378.35 1041.55 404.31" />
					</g>
					<g id="&lt;Group&gt;">
					</g>
				</g>
			</g>
			<g id="&lt;Group&gt;">
				<g id="&lt;Group&gt;">
					<g id="&lt;Group&gt;">
						<path id="&lt;Path&gt;" class="shp2" d="M495.95 510.05C547.92 466.68 601.57 475.18 641.02 524.66C660.3 548.84 673.32 579.15 682.79 610.77C694.2 648.88 699.82 694.88 678.92 730.68C666.07 752.71 644.77 767.16 623 773.35C601.22 779.53 578.91 778.2 557.51 774.3C507.48 765.18 437.77 739.85 407.34 691.76C388.9 662.62 397.75 628.03 415.76 598.18C437.46 562.21 472.75 529.42 495.95 510.05Z" />
						<path id="&lt;Path&gt;" class="shp5" d="M462.79 556.7C455.59 564.41 449.64 571.08 444.93 576.71" />
						<path id="&lt;Path&gt;" class="shp5" d="M481.95 537.09C495.36 524.05 509.52 511.21 525.49 501.37C541.09 491.75 558.96 488.93 576.87 493.64C586.36 496.14 596.63 500.26 603.8 507.2" />
					</g>
					<g id="&lt;Group&gt;">
					</g>
				</g>
			</g>
		</g>
	</g>
</svg>