<svg version="1.2" baseProfile="tiny-ps" xmlns="http://www.w3.org/2000/svg" viewBox="0 0 2000 2000" width="2000" height="2000">
	<title>Feb-Business_9-ai</title>
	<style>
		tspan { white-space:pre }
		.shp0 { fill: #f7f0e3 } 
		.shp1 { fill: #ffffff } 
		.shp2 { fill: #e9ddca } 
		.shp3 { fill: #e49b31 } 
		.shp4 { fill: #fbc343 } 
		.shp5 { fill: #d3dfff } 
		.shp6 { fill: #102048 } 
		.shp7 { fill: #f9b384 } 
		.shp8 { fill: #e28b6d } 
		.shp9 { fill: #3a6bea } 
		.shp10 { opacity: 0.4;fill: #eb5d60 } 
		.shp11 { fill: #1f3c88 } 
	</style>
	<g id="OBJECTS">
		<g id="&lt;Group&gt;">
			<g id="&lt;Group&gt;">
				<g id="&lt;Group&gt;">
					<path id="&lt;Path&gt;" class="shp0" d="M1630.09 1684.64L386.87 1684.64C314.54 1630.34 272.44 1537.92 289.22 1442.64C307.12 1340.98 392.55 1255.58 495.14 1240.18C572.75 1228.53 646.14 1272.5 723.23 1270.54C800.27 1268.59 834.24 1208.71 875.89 1154.02C921.51 1094.12 975.68 1034 1047.39 1005.73C1086.31 990.38 1130.83 986.3 1169.99 1001.02C1219.55 1019.66 1246.72 1064.28 1277.03 1104.57C1308.67 1146.62 1346.89 1170.27 1399.87 1177.1C1460.87 1184.95 1527.37 1176.42 1585.28 1199.87C1640.88 1222.38 1687.17 1268.13 1711.27 1322.95C1769.06 1454.39 1721.23 1587.95 1630.09 1684.64Z" />
					<g id="&lt;Group&gt;">
						<path id="&lt;Path&gt;" class="shp1" d="M642.65 1590.9C661.61 1534.55 660.82 1475.43 640.43 1424.44C630.09 1398.6 615.11 1374.42 600.63 1351.03C585.82 1327.13 570.5 1302.41 560.07 1275.82C555.64 1264.53 552.39 1252.4 550.48 1240.03C551.34 1240.13 552.2 1240.22 553.05 1240.33C554.96 1252.28 558.12 1264 562.4 1274.9C572.75 1301.29 588 1325.91 602.75 1349.71C617.29 1373.19 632.33 1397.47 642.75 1423.51C663.36 1475.05 664.16 1534.78 645.02 1591.69C633.19 1626.85 614.59 1658.53 590.84 1684.64L587.42 1684.64C611.68 1658.47 630.68 1626.49 642.65 1590.9Z" />
						<path id="&lt;Path&gt;" class="shp1" d="M1423.84 1571.4C1415.05 1574.66 1406.56 1578.74 1398.45 1583.56C1460.7 1609.89 1521.82 1629.49 1574.41 1645.06L1576.41 1645.65C1599.13 1652.36 1622.37 1659.24 1642.95 1670.41C1642.39 1671.06 1641.82 1671.7 1641.25 1672.35C1621 1661.45 1598.1 1654.66 1575.71 1648.04L1573.71 1647.45C1520.57 1631.73 1458.74 1611.89 1395.82 1585.16C1364.79 1604.43 1339.49 1634.73 1324.27 1671.65C1322.5 1675.95 1320.95 1680.28 1319.5 1684.64L1316.87 1684.64C1318.4 1679.96 1320.06 1675.31 1321.96 1670.7C1337.13 1633.87 1362.23 1603.55 1393.02 1583.97C1370.51 1574.34 1347.89 1563.83 1325.48 1552.3C1282.65 1584.65 1240.99 1618.74 1200.32 1652.01C1187.11 1662.81 1173.76 1673.72 1160.31 1684.64L1156.35 1684.64C1170.6 1673.08 1184.75 1661.52 1198.74 1650.08C1239.12 1617.03 1280.49 1583.19 1323.02 1551.03C1297.97 1538.04 1273.21 1523.79 1249.24 1508.08C1204.78 1478.95 1151.83 1437.27 1105.73 1381.79C1094.93 1383 1084.13 1384.19 1073.36 1385.38C1036.47 1389.45 998.34 1393.66 961.31 1398.43C948.05 1400.13 934.56 1402.12 921.14 1404.6C931.4 1426.32 941.32 1448.22 951.18 1469.98L952.26 1472.37C987 1549.06 1022.91 1623.06 1070.1 1684.64L1066.98 1684.64C1020.22 1623.17 984.51 1549.62 949.98 1473.4L948.9 1471.01C938.96 1449.06 928.96 1426.98 918.6 1405.07C859.25 1416.32 801.62 1437.43 771.04 1486.64C742.57 1532.47 742.67 1596.03 771.35 1675.55C772.47 1678.66 773.61 1681.66 774.75 1684.64L772.08 1684.64C771.03 1681.92 770 1679.18 769 1676.4C740.05 1596.12 740.02 1531.83 768.92 1485.32C799.86 1435.52 857.81 1414.12 917.5 1402.74C888.34 1341.27 856.32 1281.32 815.03 1229.92C815.63 1229.33 816.24 1228.76 816.83 1228.16C858.48 1279.96 890.7 1340.35 920.04 1402.26C933.72 1399.72 947.47 1397.69 960.99 1395.94C998.04 1391.18 1036.19 1386.97 1073.09 1382.89C1083.31 1381.77 1093.57 1380.63 1103.83 1379.48C1071.82 1340.54 1043.25 1294.88 1023.33 1242.1C991.85 1158.72 993.56 1076.82 1028.02 1017.38C1028.86 1015.94 1029.72 1014.51 1030.6 1013.09C1032.01 1012.42 1033.42 1011.74 1034.84 1011.08C1033.23 1013.57 1031.67 1016.08 1030.19 1018.64C996.1 1077.42 994.46 1158.54 1025.66 1241.21C1045.7 1294.28 1074.53 1340.13 1106.79 1379.16C1283.97 1359.31 1464.46 1334.49 1611.54 1236.19C1616.9 1232.6 1622.83 1228.4 1628.97 1223.64C1629.69 1224.14 1630.4 1224.63 1631.11 1225.14C1624.7 1230.13 1618.51 1234.53 1612.93 1238.27C1465.81 1336.59 1285.66 1361.6 1108.71 1381.46C1154.37 1436.08 1206.66 1477.19 1250.61 1505.99C1274.85 1521.87 1299.89 1536.26 1325.23 1549.35C1341.92 1536.77 1358.79 1524.44 1375.84 1512.53C1500.03 1425.82 1614.69 1376.61 1725.53 1362.57C1725.76 1363.38 1725.99 1364.19 1726.21 1365C1615.67 1378.93 1501.25 1428.01 1377.28 1514.58C1360.57 1526.24 1344.05 1538.31 1327.7 1550.63C1350.23 1562.18 1372.98 1572.71 1395.61 1582.36C1404.32 1577.04 1413.47 1572.58 1422.97 1569.06C1448.03 1559.77 1474.08 1556.29 1500.27 1556.29C1542.56 1556.29 1585.21 1565.37 1624.61 1573.77C1650.48 1579.28 1675.4 1584.21 1699.47 1587.27C1699.06 1588.06 1698.67 1588.86 1698.26 1589.65C1674.39 1586.57 1649.7 1581.67 1624.08 1576.21C1560.63 1562.69 1488.7 1547.37 1423.84 1571.4Z" />
						<path id="&lt;Path&gt;" class="shp1" d="M343.4 1327.65C343.93 1327.01 344.47 1326.37 345.01 1325.74C369.27 1347.65 386.83 1377.93 395.57 1413.68C406.75 1459.44 401.75 1508.87 381.86 1549.3C368.81 1575.84 349.94 1599.85 326.7 1620.44C326.24 1619.74 325.77 1619.04 325.32 1618.33C348.19 1598.01 366.76 1574.34 379.62 1548.2C399.25 1508.28 404.18 1459.47 393.14 1414.27C384.53 1379.05 367.25 1349.23 343.4 1327.65Z" />
					</g>
				</g>
				<path id="&lt;Path&gt;" class="shp0" d="M958.96 841.72C980.74 863.97 990.5 901.46 978.49 936.03C966.86 969.5 941.37 997.22 910.75 1015.05C886.11 1029.39 853.97 1037.3 829.74 1022.28C811.63 1011.06 802.24 989.04 801.72 967.75C801.2 946.45 808.36 925.69 817.21 906.32C829.69 879 846.48 852.52 871.5 835.91C905.98 813.01 938.02 820.32 958.96 841.72Z" />
			</g>
			<g id="&lt;Group&gt;">
				<path id="&lt;Compound Path&gt;" fill-rule="evenodd" class="shp2" d="M670.27 451.52L489.93 451.52L489.93 370.95L670.27 370.95L670.27 451.52ZM493.68 447.77L666.52 447.77L666.52 374.7L493.68 374.7L493.68 447.77Z" />
				<path id="&lt;Compound Path&gt;" fill-rule="evenodd" class="shp2" d="M552.95 528.56L372.61 528.56L372.61 448L552.95 448L552.95 528.56ZM376.36 524.81L549.2 524.81L549.2 451.75L376.36 451.75L376.36 524.81Z" />
			</g>
			<g id="&lt;Group&gt;">
				<g id="&lt;Group&gt;">
					<path id="&lt;Path&gt;" class="shp3" d="M1713.85 725.21C1713.85 760.31 1708.58 792.53 1698.16 821.94C1687.74 851.42 1674.57 878.63 1658.64 903.7C1642.71 928.77 1624.27 952.49 1603.43 975.06C1582.59 997.62 1562.35 1018.9 1542.77 1038.9C1528.04 1053.94 1512.71 1069.9 1496.78 1086.84C1480.79 1103.71 1466.42 1121.57 1453.55 1140.34C1440.67 1159.17 1429.9 1178.86 1421.33 1199.53C1412.77 1220.2 1408.46 1241.17 1408.46 1262.45C1408.46 1267.47 1408.46 1274.99 1408.46 1285.02C1408.46 1295.04 1409.06 1303.79 1410.31 1311.31L1167.5 1311.31L1117.56 1277.54L1163.32 1277.54C1163.15 1274.76 1163 1271.94 1162.89 1269.06C1162.23 1253.4 1161.99 1239.95 1161.99 1228.64C1161.99 1193.6 1166.24 1161.99 1174.86 1133.8C1183.43 1105.61 1194.74 1079.31 1208.88 1054.92C1222.95 1030.46 1239.24 1007.65 1257.62 986.31C1276 965.03 1295.04 944.36 1314.63 924.37C1342.83 895.57 1368.58 867.07 1391.93 838.88C1415.17 810.69 1426.84 778.47 1426.84 742.15C1426.84 712.06 1415.52 686.44 1392.83 665.1C1370.13 643.82 1336.72 633.18 1292.59 633.18C1248.4 633.18 1206.72 638.81 1167.5 650.06C1128.22 661.37 1084.68 679.53 1036.9 704.54L988.49 690.31L1021.87 663.28L959.59 492.3C1007.44 460.99 1063.84 436.9 1128.88 419.96C1193.85 403.08 1257.62 394.64 1320.19 394.64C1398.64 394.64 1463.31 405.28 1514.21 426.56C1565.11 447.84 1605.29 474.75 1634.75 507.34C1664.15 539.93 1684.69 575.58 1696.37 614.41C1707.98 653.24 1713.85 690.17 1713.85 725.21Z" />
					<path id="&lt;Path&gt;" class="shp4" d="M1241.18 621.25C1197.51 621.25 1156.32 626.7 1117.56 637.59C1078.74 648.53 1035.72 666.11 988.49 690.31L912.09 484.91C959.38 454.61 1015.12 431.29 1079.39 414.9C1143.6 398.57 1206.62 390.4 1268.46 390.4C1345.99 390.4 1409.9 400.7 1460.2 421.29C1510.5 441.88 1550.21 467.92 1579.33 499.46C1608.38 531.01 1628.68 565.51 1640.22 603.09C1651.7 640.66 1657.5 676.41 1657.5 710.32C1657.5 744.28 1652.29 775.47 1642 803.94C1631.7 832.46 1618.68 858.79 1602.94 883.06C1587.2 907.32 1568.97 930.28 1548.38 952.12C1527.78 973.95 1507.78 994.55 1488.43 1013.9C1473.87 1028.46 1458.72 1043.9 1442.98 1060.3C1427.18 1076.63 1412.98 1093.91 1400.25 1112.08C1387.53 1130.3 1376.88 1149.36 1368.41 1169.36C1359.95 1189.36 1355.69 1209.66 1355.69 1230.26C1355.69 1235.11 1355.69 1242.39 1355.69 1252.09C1355.69 1261.8 1356.28 1270.26 1357.53 1277.54L1117.56 1277.54C1115.07 1265.41 1113.59 1251.8 1113 1236.65C1112.35 1221.5 1112.11 1208.48 1112.11 1197.53C1112.11 1163.62 1116.32 1133.03 1124.84 1105.74C1133.3 1078.46 1144.48 1053.02 1158.45 1029.4C1172.36 1005.73 1188.45 983.66 1206.62 963.01C1224.79 942.41 1243.61 922.41 1262.96 903.06C1290.83 875.19 1316.28 847.61 1339.36 820.33C1362.32 793.05 1373.86 761.86 1373.86 726.71C1373.86 697.59 1362.67 672.8 1340.25 652.14C1317.82 631.55 1284.8 621.25 1241.18 621.25Z" />
				</g>
				<g id="&lt;Group&gt;">
					<path id="&lt;Path&gt;" class="shp3" d="M1426.93 1547C1426.93 1590.78 1412.76 1624.56 1384.42 1648.39C1356.07 1672.27 1324.04 1684.16 1288.27 1684.16C1252.45 1684.16 1220.42 1672.27 1192.08 1648.39C1163.78 1624.56 1149.61 1590.78 1149.61 1547C1149.61 1503.28 1163.78 1469.5 1192.08 1445.62C1235.71 1408.8 1300.25 1400.59 1351.34 1426.43C1396.66 1449.37 1426.93 1495.93 1426.93 1547Z" />
					<path id="&lt;Path&gt;" class="shp4" d="M1379.43 1547C1379.43 1590.78 1365.26 1624.56 1336.92 1648.39C1308.57 1672.27 1276.54 1684.16 1240.77 1684.16C1204.95 1684.16 1172.92 1672.27 1144.58 1648.39C1116.28 1624.56 1102.11 1590.78 1102.11 1547C1102.11 1503.28 1116.28 1469.5 1144.58 1445.62C1172.92 1421.79 1204.95 1409.85 1240.77 1409.85C1276.54 1409.85 1308.57 1421.79 1336.92 1445.62C1365.26 1469.5 1379.43 1503.28 1379.43 1547Z" />
				</g>
			</g>
			<g id="&lt;Group&gt;">
				<g id="&lt;Group&gt;">
					<path id="&lt;Path&gt;" class="shp5" d="M656.46 906.8C664.62 918.72 661.57 934.99 649.65 943.15C637.73 951.3 621.46 948.25 613.3 936.33C605.15 924.41 608.2 908.14 620.11 899.98C632.03 891.83 648.31 894.88 656.46 906.8Z" />
					<path id="&lt;Path&gt;" class="shp5" d="M673.08 975.5C671.58 983.49 663.85 988.74 655.81 987.23C647.77 985.72 642.46 978.03 643.96 970.04C645.45 962.06 653.19 956.81 661.23 958.32C669.27 959.82 674.57 967.52 673.08 975.5Z" />
					<g id="&lt;Group&gt;">
						<path id="&lt;Path&gt;" class="shp5" d="M671.55 808.87C661.08 864.76 607.28 901.57 551.39 891.1C495.5 880.62 458.68 826.82 469.15 770.93C479.63 715.04 533.43 678.23 589.32 688.7C645.21 699.18 682.03 752.98 671.55 808.87Z" />
						<g id="&lt;Group&gt;">
							<path id="&lt;Path&gt;" class="shp1" d="M543.79 789.9C543.79 797.06 537.98 802.87 530.82 802.87C523.65 802.87 517.85 797.06 517.85 789.9C517.85 782.74 523.65 776.93 530.82 776.93C537.98 776.93 543.79 782.74 543.79 789.9Z" />
							<path id="&lt;Path&gt;" class="shp1" d="M583.33 789.9C583.33 797.06 577.52 802.87 570.35 802.87C563.19 802.87 557.38 797.06 557.38 789.9C557.38 782.74 563.19 776.93 570.35 776.93C577.52 776.93 583.33 782.74 583.33 789.9Z" />
							<path id="&lt;Path&gt;" class="shp1" d="M622.86 789.9C622.86 797.06 617.05 802.87 609.89 802.87C602.72 802.87 596.92 797.06 596.92 789.9C596.92 782.74 602.72 776.93 609.89 776.93C617.05 776.93 622.86 782.74 622.86 789.9Z" />
						</g>
					</g>
				</g>
				<g id="&lt;Group&gt;">
					<g id="&lt;Group&gt;">
						<g id="&lt;Group&gt;">
							<path id="&lt;Path&gt;" class="shp6" d="M510.46 1608.22C552.34 1594.12 600.71 1591.24 652.43 1594.17L663.12 1647.62C625.5 1675.34 559.97 1683.07 528.42 1685.21C518.08 1685.92 508.73 1679.38 506.22 1669.71L496.6 1632.62C493.91 1622.26 499.97 1611.75 510.46 1608.22Z" />
							<path id="&lt;Path&gt;" class="shp1" d="M556.87 1662.14C556.33 1662.14 555.83 1661.78 555.67 1661.23L542.75 1614.98C542.57 1614.31 542.96 1613.62 543.62 1613.44C544.29 1613.25 544.98 1613.64 545.16 1614.31L558.08 1660.56C558.26 1661.22 557.88 1661.91 557.21 1662.1C557.1 1662.13 556.99 1662.14 556.87 1662.14Z" />
							<path id="&lt;Path&gt;" class="shp1" d="M584.79 1655.89C584.24 1655.89 583.74 1655.53 583.59 1654.98L570.67 1608.73C570.49 1608.06 570.87 1607.37 571.54 1607.19C572.21 1607 572.89 1607.39 573.08 1608.06L586 1654.31C586.18 1654.97 585.79 1655.66 585.13 1655.85C585.02 1655.88 584.9 1655.89 584.79 1655.89Z" />
						</g>
						<path id="&lt;Path&gt;" class="shp4" d="M824.03 1424.5L891.21 1525.58L714.44 1600.32L586.28 1590.13L497.01 1467.82L617.21 1432.14L824.03 1424.5Z" />
						<path id="&lt;Path&gt;" class="shp4" d="M765.41 1449.13C1029.38 1370.99 1071.81 1604.29 659.93 1646.76C645.38 1630.39 628.38 1601.98 621.63 1578.24L839.14 1477.73L765.41 1449.13Z" />
						<path id="&lt;Path&gt;" class="shp7" d="M763.81 1672.98L719.74 1664.03L710.02 1617.88L752.44 1604.57C760.33 1609.78 768.39 1613.7 776.62 1616.34C778.02 1628.26 777.24 1648.43 763.81 1672.98Z" />
						<path id="&lt;Path&gt;" class="shp3" d="M622.58 1579.86L620.69 1576.62C666.07 1550.25 782.29 1486.89 881.32 1468.21L882.01 1471.9C783.56 1490.47 667.78 1553.59 622.58 1579.86Z" />
						<path id="&lt;Path&gt;" class="shp4" d="M617.21 1432.14C371.5 1385.43 307.87 1621.56 719.74 1664.03C734.29 1647.66 745.69 1628.31 752.44 1604.57C689.17 1562.24 618.44 1522 540.91 1483.67L617.21 1432.14Z" />
						<path id="&lt;Path&gt;" class="shp3" d="M751.44 1606.15C739.75 1598.71 727.57 1590.85 714.67 1582.52C649.95 1540.73 576.58 1493.37 514.25 1466.36L515.75 1462.91C578.36 1490.05 651.86 1537.5 716.71 1579.37C729.6 1587.7 741.77 1595.56 753.45 1602.99L751.44 1606.15Z" />
						<path id="&lt;Path&gt;" class="shp3" d="M436.94 1549.22L433.66 1547.41C442.88 1530.71 457.65 1519.45 477.56 1513.94L478.56 1517.55C459.39 1522.86 445.78 1533.22 436.94 1549.22Z" />
						<path id="&lt;Path&gt;" class="shp3" d="M949.77 1535.01C940.93 1519.01 927.31 1508.65 908.14 1503.34L909.14 1499.72C929.06 1505.24 943.83 1516.5 953.05 1533.2L949.77 1535.01Z" />
						<path id="&lt;Path&gt;" class="shp3" d="M696.73 1661.96L693.99 1659.4C713.65 1638.35 725.72 1616.12 730.9 1591.46L734.57 1592.23C729.24 1617.58 716.87 1640.39 696.73 1661.96Z" />
						<g id="&lt;Group&gt;">
							<path id="&lt;Path&gt;" class="shp6" d="M877.95 1682.43C841.35 1689.79 805.8 1687.15 771.3 1674.5L763.81 1672.98C777.24 1648.43 778.02 1628.26 776.62 1616.34C781.7 1617.96 786.87 1618.94 791.33 1618.44C806.65 1616.75 867.68 1583.14 899.16 1602.59C923.91 1617.88 928.62 1672.24 877.95 1682.43Z" />
							<path id="&lt;Path&gt;" class="shp1" d="M856.25 1666.21C856.13 1666.21 856 1666.19 855.87 1666.15C855.22 1665.94 854.85 1665.24 855.06 1664.58C858.8 1652.74 860.43 1629.44 849.6 1613.79C849.2 1613.22 849.35 1612.45 849.91 1612.05C850.48 1611.66 851.26 1611.8 851.65 1612.37C863 1628.75 861.33 1653.02 857.44 1665.33C857.27 1665.86 856.78 1666.21 856.25 1666.21Z" />
							<path id="&lt;Path&gt;" class="shp1" d="M831.56 1670.89C831.44 1670.89 831.31 1670.87 831.19 1670.84C830.53 1670.63 830.16 1669.92 830.37 1669.27C834.11 1657.42 835.74 1634.13 824.91 1618.48C824.52 1617.91 824.66 1617.13 825.23 1616.74C825.79 1616.35 826.57 1616.49 826.97 1617.06C838.31 1633.44 836.64 1657.71 832.75 1670.02C832.59 1670.55 832.09 1670.89 831.56 1670.89Z" />
						</g>
					</g>
					<g id="&lt;Group&gt;">
						<g id="&lt;Group&gt;">
							<path id="&lt;Path&gt;" class="shp7" d="M500.67 1092.1C551.22 1045.71 580.1 1021.06 587.3 1018.13C594.51 1015.2 596.42 1017.6 593.03 1025.32C602.48 1018.71 608.31 1016.22 610.5 1017.82C612.69 1019.43 611.46 1023.29 606.79 1029.41C614.78 1022.62 620.6 1020.12 624.26 1021.92C627.92 1023.71 625.93 1030.13 618.26 1041.15C629.6 1033.29 636.01 1031.47 637.5 1035.68C638.33 1038.05 630.56 1048.95 614.17 1068.39C625.85 1061.41 632.24 1060.3 633.33 1065.06C634.86 1071.73 615 1092.6 573.74 1127.68L500.67 1092.1Z" />
							<g id="&lt;Group&gt;">
								<path id="&lt;Path&gt;" class="shp8" d="M599.06 1065.27C598.76 1065.27 598.46 1065.16 598.22 1064.94C587.6 1055.24 582.91 1052.88 571.19 1049.27C570.54 1049.07 570.16 1048.37 570.37 1047.71C570.57 1047.05 571.27 1046.68 571.93 1046.89C584.07 1050.62 588.92 1053.06 599.91 1063.09C600.42 1063.56 600.45 1064.35 599.99 1064.86C599.74 1065.13 599.4 1065.27 599.06 1065.27Z" />
								<path id="&lt;Path&gt;" class="shp8" d="M580.42 1093.81C580.36 1093.81 580.3 1093.81 580.24 1093.8C579.56 1093.7 579.08 1093.07 579.18 1092.39C580.39 1083.69 583.13 1078.25 587.55 1075.76C591.33 1073.64 596.25 1073.86 602.16 1076.41C602.8 1076.69 603.09 1077.42 602.81 1078.05C602.54 1078.69 601.81 1078.98 601.17 1078.71C596.01 1076.48 591.84 1076.22 588.78 1077.94C585.14 1079.99 582.74 1084.97 581.65 1092.73C581.57 1093.36 581.03 1093.81 580.42 1093.81Z" />
								<path id="&lt;Path&gt;" class="shp8" d="M577.5 1041.21C577.17 1041.21 576.84 1041.07 576.59 1040.81C576.12 1040.31 576.14 1039.52 576.64 1039.05L592.17 1024.41C592.67 1023.94 593.46 1023.96 593.94 1024.46C594.41 1024.97 594.39 1025.76 593.89 1026.23L578.36 1040.86C578.12 1041.09 577.81 1041.21 577.5 1041.21Z" />
								<path id="&lt;Path&gt;" class="shp8" d="M591.88 1046.21C591.56 1046.21 591.25 1046.09 591.01 1045.86C590.51 1045.38 590.5 1044.59 590.97 1044.09L605.89 1028.55C606.37 1028.05 607.16 1028.03 607.66 1028.51C608.15 1028.99 608.17 1029.78 607.69 1030.28L592.78 1045.82C592.53 1046.08 592.2 1046.21 591.88 1046.21Z" />
								<path id="&lt;Path&gt;" class="shp8" d="M606.56 1054.96C606.26 1054.96 605.95 1054.84 605.71 1054.62C605.21 1054.15 605.18 1053.36 605.65 1052.85L617.35 1040.3C617.82 1039.8 618.61 1039.77 619.12 1040.24C619.62 1040.71 619.65 1041.5 619.18 1042L607.48 1054.56C607.23 1054.82 606.9 1054.96 606.56 1054.96Z" />
							</g>
						</g>
						<g id="&lt;Group&gt;">
							<path id="&lt;Path&gt;" class="shp9" d="M807.5 1479.64L581.25 1488.39L556.25 1282.14C606.75 1234.24 641.71 1201.48 661.13 1183.84L710.33 1181.32C862.96 1250.69 837.97 1337.34 807.5 1479.64Z" />
							<path id="&lt;Path&gt;" class="shp9" d="M710.33 1181.32C826.74 1191.27 903.3 1236.13 940 1315.89C975.91 1393.93 920.08 1446.85 772.5 1474.64L710.33 1181.32Z" />
							<path id="&lt;Path&gt;" class="shp9" d="M666.25 1198.15L641.25 1294.64C556.25 1319.64 451.24 1327.86 423.75 1324.64C391.56 1320.87 367.45 1297.21 362.44 1266.56L362.44 1266.55C360.52 1254.79 361.14 1242.78 364.56 1230.62C368.56 1216.37 376.52 1203.43 386.7 1192.35C432.83 1142.15 487.26 1097.82 515.41 1078.25L582.89 1119.14L510.73 1206.95C557.93 1189.59 653.4 1190.86 666.25 1198.15Z" />
						</g>
						<g id="&lt;Group&gt;" style="opacity: 0.8">
							<path id="&lt;Path&gt;" class="shp1" d="M816.02 1236.54C807.87 1237.53 780.64 1239.29 772.49 1220.69C768.48 1211.56 771.3 1201.51 775.7 1194.34C776.33 1194.52 776.95 1194.7 777.58 1194.88C773.28 1201.64 770.4 1211.28 774.2 1219.94C781.84 1237.35 807.97 1235.62 815.8 1234.68C828.81 1233.11 842.01 1230.1 854.81 1227.15C855.6 1227.61 856.4 1228.07 857.18 1228.53C856.81 1228.62 856.43 1228.71 856.05 1228.79C842.96 1231.81 829.41 1234.93 816.02 1236.54Z" />
							<path id="&lt;Path&gt;" class="shp1" d="M946.6 1367.02C946.46 1367.63 946.3 1368.23 946.14 1368.84C943 1367.83 939.91 1366.65 936.87 1365.47C928.36 1362.18 920.32 1359.09 911.7 1359.89C896.71 1361.31 883.87 1376.22 883.08 1393.14C882.54 1404.89 887.08 1417.25 895.73 1428.13C895.2 1428.46 894.67 1428.8 894.13 1429.13C885.29 1417.93 880.65 1405.2 881.21 1393.06C882.03 1375.24 895.63 1359.53 911.53 1358.02C920.59 1357.17 929.21 1360.5 937.55 1363.72C940.52 1364.87 943.54 1366.03 946.6 1367.02Z" />
							<path id="&lt;Path&gt;" class="shp1" d="M508.56 1320.49C507.91 1320.56 507.27 1320.64 506.62 1320.71C504.07 1314.96 500.57 1309.64 495.61 1305.54C485.17 1296.91 468.84 1294.63 450.8 1299.3C434.86 1303.42 421.15 1311.49 411.63 1322.17C410.98 1321.98 410.35 1321.74 409.71 1321.54C419.49 1310.28 433.73 1301.78 450.33 1297.48C468.96 1292.67 485.9 1295.08 496.8 1304.09C502.17 1308.54 505.89 1314.31 508.56 1320.49Z" />
							<path id="&lt;Path&gt;" class="shp1" d="M400.69 1177.55C419.96 1172.56 438.71 1165.65 456.06 1155.66C462.83 1151.76 470.48 1146.79 475.79 1139.58C481.3 1132.1 483.15 1123.24 480.73 1115.9C479.79 1113.01 478.1 1110.48 475.99 1108.47C476.47 1108.08 476.95 1107.68 477.43 1107.29C479.69 1109.48 481.5 1112.21 482.52 1115.31C485.12 1123.23 483.17 1132.72 477.3 1140.7C471.78 1148.19 463.94 1153.29 456.99 1157.29C438.61 1167.88 418.67 1175.01 398.24 1180.08C399.06 1179.24 399.87 1178.39 400.69 1177.55Z" />
						</g>
						<g id="&lt;Group&gt;">
							<path id="&lt;Path&gt;" class="shp7" d="M726.31 1135.46L726.28 1138.66L725.77 1188.39L725.71 1193.78C725.61 1202.21 722.16 1209.85 716.58 1215.4C711.03 1220.91 703.39 1224.37 694.93 1224.43C677.88 1224.52 663.93 1210.83 663.77 1193.75L663.17 1132.29L726.31 1135.46Z" />
							<path id="&lt;Path&gt;" class="shp6" d="M726.28 1138.66L725.77 1188.39C707.35 1180.89 694.34 1167.17 686.75 1147.22L726.28 1138.66Z" />
							<path id="&lt;Path&gt;" class="shp7" d="M737.21 1051.88C747.12 1063.77 776.04 1131.12 746.72 1154.1C724.73 1171.34 696.99 1165.79 663.52 1137.46L656.79 1059.01L700.37 1047.52L737.21 1051.88Z" />
							<path id="&lt;Path&gt;" class="shp6" d="M665.63 1131.91C660.32 1153.86 672.77 1183.35 685.66 1206.25C696.83 1226.1 689.04 1251.24 668.46 1261.01L668.46 1261.01C649.28 1270.12 626.86 1261.97 616.74 1243.31C564.19 1146.42 570.14 1081.17 634.58 1047.56L665.63 1131.91Z" />
							<path id="&lt;Path&gt;" class="shp4" d="M669.86 1071.43C669.86 1085.87 658.15 1097.57 643.71 1097.57C629.27 1097.57 617.56 1085.87 617.56 1071.43C617.56 1056.98 629.27 1045.28 643.71 1045.28C658.15 1045.28 669.86 1056.98 669.86 1071.43Z" />
							<path id="&lt;Path&gt;" class="shp6" d="M667.65 1114.28L640.54 1118.44C613.07 1090.18 625.22 1005.39 715.82 1023.09C751.21 999.05 768.12 1033.65 757.02 1055.58C749.63 1070.19 726.56 1073.98 687.82 1066.93C671.33 1075.34 673.05 1086.53 675.88 1102.84C676.82 1108.28 673.11 1113.44 667.65 1114.28Z" />
							<g id="&lt;Group&gt;">
								<path id="&lt;Path&gt;" class="shp6" d="M724.73 1102.89C724.73 1105.02 723 1106.75 720.87 1106.75C718.74 1106.75 717.01 1105.02 717.01 1102.89C717.01 1100.76 718.74 1099.03 720.87 1099.03C723 1099.03 724.73 1100.76 724.73 1102.89Z" />
								<path id="&lt;Path&gt;" class="shp6" d="M750.88 1090.01C750.88 1092.15 749.15 1093.88 747.02 1093.88C744.89 1093.88 743.16 1092.15 743.16 1090.01C743.16 1087.88 744.89 1086.15 747.02 1086.15C749.15 1086.15 750.88 1087.88 750.88 1090.01Z" />
								<path id="&lt;Path&gt;" class="shp6" d="M744.34 1114.78C744.07 1114.78 743.8 1114.68 743.59 1114.48C743.15 1114.06 743.14 1113.37 743.55 1112.93C745.1 1111.3 746.8 1109.01 746.09 1107.35C745.34 1105.62 742.21 1104.88 740.78 1104.88C737.7 1104.88 736.22 1099.39 735.95 1098.29C735.81 1097.71 736.17 1097.12 736.76 1096.97C737.34 1096.83 737.94 1097.19 738.08 1097.78C738.64 1100.1 739.91 1102.69 740.78 1102.69C742.25 1102.69 746.76 1103.38 748.09 1106.48C749.04 1108.7 748.05 1111.37 745.14 1114.44C744.92 1114.66 744.63 1114.78 744.34 1114.78Z" />
								<path id="&lt;Path&gt;" class="shp6" d="M744.54 1129.44C744.33 1129.44 744.12 1129.38 743.93 1129.25C736.66 1124.34 729.31 1128.46 729.24 1128.5C728.72 1128.8 728.05 1128.62 727.75 1128.1C727.45 1127.57 727.63 1126.91 728.15 1126.6C728.5 1126.4 736.76 1121.77 745.15 1127.44C745.66 1127.78 745.79 1128.46 745.45 1128.96C745.24 1129.27 744.89 1129.44 744.54 1129.44Z" />
								<path id="&lt;Path&gt;" class="shp6" d="M719.18 1086.16C721.38 1090.29 717.55 1091.12 713.06 1093.51C708.57 1095.89 703.98 1096.77 702.93 1094.79C701.88 1092.82 704.67 1089.29 709.16 1086.9C713.64 1084.52 717.48 1082.96 719.18 1086.16Z" />
								<path id="&lt;Path&gt;" class="shp6" d="M741.96 1073.61C745.96 1072.56 749.58 1073.14 750.04 1074.9C750.51 1076.66 747.27 1078.67 743.27 1079.72C739.26 1080.77 736.51 1082.38 735.54 1078.69C734.79 1075.84 737.95 1074.66 741.96 1073.61Z" />
							</g>
							<path id="&lt;Path&gt;" class="shp10" d="M714.43 1120.92C714.43 1127.21 709.33 1132.31 703.04 1132.31C696.75 1132.31 691.65 1127.21 691.65 1120.92C691.65 1114.63 696.75 1109.53 703.04 1109.53C709.33 1109.53 714.43 1114.63 714.43 1120.92Z" />
							<path id="&lt;Path&gt;" class="shp7" d="M669.21 1108.74C676.87 1114.66 678.87 1124.92 673.66 1131.67C668.46 1138.41 658.02 1139.09 650.36 1133.17C642.7 1127.26 640.7 1116.99 645.91 1110.25C651.11 1103.5 661.54 1102.83 669.21 1108.74Z" />
							<path id="&lt;Path&gt;" class="shp6" d="M666.56 1126.67C665.96 1126.67 665.47 1126.18 665.47 1125.58C665.47 1122.35 663.89 1119.37 661.26 1117.59C659 1116.08 656.32 1115.72 654.07 1116.64C653.51 1116.86 652.87 1116.6 652.64 1116.04C652.42 1115.48 652.68 1114.84 653.24 1114.61C656.17 1113.42 659.62 1113.86 662.48 1115.78C665.72 1117.96 667.66 1121.62 667.66 1125.58C667.66 1126.18 667.17 1126.67 666.56 1126.67Z" />
						</g>
						<g id="&lt;Group&gt;">
							<path id="&lt;Path&gt;" class="shp6" d="M472.17 1250.49L470.33 1248.79L509.81 1206.1L511.64 1207.8L472.17 1250.49Z" />
							<path id="&lt;Path&gt;" class="shp6" d="M787.86 1389.59L787.14 1387.2C815.87 1378.44 843.75 1367.96 869.02 1336.36L870.98 1337.92C845.26 1370.08 816.99 1380.71 787.86 1389.59Z" />
						</g>
					</g>
					<g id="&lt;Group&gt;">
						<g id="&lt;Group&gt;">
							<path id="&lt;Path&gt;" class="shp5" d="M821.25 1309.99L821.25 1484.5C821.25 1494.01 814.12 1501.72 805.33 1501.72L560.92 1501.72C552.13 1501.72 545 1494.01 545 1484.5L545 1309.99C545 1300.48 552.13 1292.78 560.92 1292.78L805.33 1292.78C814.12 1292.78 821.25 1300.48 821.25 1309.99Z" />
						</g>
						<g id="&lt;Group&gt;">
							<path id="&lt;Compound Path&gt;" fill-rule="evenodd" class="shp11" d="M702.71 1388.04L702.71 1406.46C702.71 1410.22 699.71 1413.28 696.03 1413.28L670.22 1413.28C666.54 1413.28 663.54 1410.22 663.54 1406.46L663.54 1388.04C663.54 1384.28 666.54 1381.22 670.22 1381.22L696.03 1381.22C699.71 1381.22 702.71 1384.28 702.71 1388.04ZM670.22 1386.22C669.29 1386.22 668.54 1387.03 668.54 1388.04L668.54 1406.46C668.54 1407.46 669.29 1408.28 670.22 1408.28L696.03 1408.28C696.96 1408.28 697.71 1407.46 697.71 1406.46L697.71 1388.04C697.71 1387.03 696.96 1386.22 696.03 1386.22L670.22 1386.22Z" />
						</g>
					</g>
				</g>
			</g>
			<path id="&lt;Path&gt;" class="shp6" d="M1753.94 1687.14L280.26 1687.14L280.26 1682.14L1753.94 1682.14L1753.94 1687.14Z" />
		</g>
	</g>
</svg>