<svg width="605" height="694" viewBox="0 0 605 694" fill="none" xmlns="http://www.w3.org/2000/svg">
<path d="M583.685 360.953C596.255 362.074 605.54 373.169 604.419 385.738L578.884 672.964C577.763 685.534 566.668 694.813 554.099 693.698L33.3964 647.399C20.827 646.284 11.5416 635.189 12.6566 622.62L38.1976 335.393C39.3125 322.824 50.4075 313.538 62.977 314.653L113.815 319.174C119.067 303.528 122.571 295.37 134.884 285.286C141.885 279.559 150.067 275.288 158.75 272.729C160.273 272.278 161.814 271.882 163.368 271.541C169.753 259.818 176.583 247.889 182.92 238.079C174.64 225.754 169.625 211.338 169.455 196.508C169.156 170.979 184.443 145.268 208.077 135.617C224.564 128.89 243.049 130.048 260.688 127.605C271.186 126.155 282.202 122.712 290.689 116.638C290.524 116.431 290.36 116.23 290.202 116.016C283.506 107.139 284.011 93.5704 291.347 85.2111C293.949 82.25 297.373 79.9104 301.156 78.899C301.351 77.3453 301.595 75.6881 301.912 73.9212C303.752 63.4233 307.791 49.7145 316.589 38.2296C325.948 26.0197 340.674 16.2712 363.888 15.5888C364.138 15.5644 364.393 15.5644 364.637 15.5705C364.808 15.5644 364.978 15.5644 365.143 15.5583C367.677 15.5218 370.139 15.7168 372.491 16.125C373.478 16.2895 374.428 16.4844 375.367 16.7282C375.415 16.7342 375.482 16.7586 375.531 16.7769C376.012 16.8866 376.488 17.0206 376.975 17.1607C377.913 17.4349 378.839 17.7274 379.741 18.0747C379.747 18.0747 379.759 18.0869 379.766 18.0869C381.069 18.5743 382.337 19.1348 383.574 19.7563C395.211 25.5993 404.045 37.0903 410.108 51.256C410.577 52.3649 411.04 53.486 411.479 54.6314C412.118 56.2399 412.721 57.8971 413.276 59.5788L413.44 60.0966C413.648 60.712 413.849 61.3335 414.031 61.961C414.105 62.2048 414.178 62.4485 414.245 62.6861C414.336 62.9542 414.427 63.2405 414.507 63.5269C414.945 65.044 415.366 66.5733 415.756 68.1209C416.091 69.4552 416.408 70.7956 416.706 72.1482C421.623 94.3016 421.264 118.977 415.731 138.365C420.063 143.105 424.864 147.473 429.726 151.397C446.865 165.222 466.698 177.633 476.05 197.574C485.384 217.473 481.533 242.826 466.716 259.057C466.039 259.8 465.327 260.507 464.596 261.195C470.451 271.114 477.171 284.415 483.575 297.862C496.589 296.722 509.932 299.19 521.6 305.088C526.523 307.574 531.36 310.882 533.767 315.842C536.594 321.66 535.534 328.539 534.291 334.888C532.89 342.004 531.318 349.096 529.581 356.145L583.685 360.953Z" fill="#E69AE6"/>
<path d="M386.157 81.4702C383.75 103.362 400.146 122.7 417.285 136.531C434.424 150.355 454.256 162.766 463.609 182.702C472.943 202.601 469.092 227.953 454.274 244.19C439.457 260.422 411.473 264.254 390.812 256.766C351.13 265.034 306.287 266.953 265.952 262.993C240.57 265.734 213.92 260.531 192.93 246.006C171.934 231.481 157.306 207.164 157.013 181.642C156.715 156.113 172.001 130.395 195.635 120.75C212.123 114.018 230.608 115.175 248.247 112.738C265.891 110.295 285.023 102.228 291.103 85.4914" fill="#262626"/>
<path d="M295.795 102.722L353.987 144.195L358.739 206.513L367.988 233.412L281.318 235.283L274.092 200.797L295.795 102.722Z" fill="#FFB78F"/>
<path d="M336.775 133.637L354.127 146.078L357.101 185.011C339.523 176.603 325.26 161.127 319.216 142.556C325.223 139.565 330.883 136.616 336.775 133.637Z" fill="#262626"/>
<path d="M388.405 150.41C364.698 172.155 340.875 171.211 316.924 147.565L289.361 79.3255L287.905 75.6698C287.905 75.6211 287.905 75.5541 287.911 75.4566C287.917 75.3408 287.911 75.1702 287.917 74.9753C287.917 74.6219 287.929 74.1284 287.953 73.5374C287.972 72.5199 288.045 71.1734 288.142 69.5588C288.234 68.3219 288.361 66.9206 288.544 65.3974C288.55 65.3487 288.563 65.2999 288.563 65.2512C288.581 65.0806 288.605 64.91 288.623 64.7333C288.837 62.9907 289.111 61.0898 289.47 59.0548C291.31 48.5569 295.35 34.8481 304.148 23.3632C313.513 11.1472 328.233 1.39871 351.446 0.722412C351.696 0.698041 351.952 0.691949 352.202 0.704134C352.366 0.698042 352.537 0.691946 352.707 0.691946C355.236 0.655389 357.704 0.844262 360.049 1.25857C361.036 1.41698 361.987 1.61805 362.925 1.85567C362.98 1.86786 363.041 1.89223 363.09 1.9105C363.577 2.02017 364.046 2.14812 364.534 2.28825C365.478 2.56243 366.398 2.86098 367.3 3.20217C367.306 3.20827 367.318 3.21436 367.324 3.21436C368.628 3.70788 369.895 4.26841 371.132 4.88988C382.769 10.7329 391.604 22.2178 397.666 36.3896C398.141 37.4985 398.598 38.6196 399.037 39.7589C399.683 41.3735 400.28 43.0247 400.834 44.7063L401.005 45.2303C401.206 45.8456 401.407 46.461 401.59 47.0946C401.663 47.3323 401.736 47.576 401.803 47.8197C401.895 48.0878 401.986 48.368 402.065 48.6605C402.504 50.1715 402.924 51.7008 403.314 53.2484C403.649 54.5827 403.966 55.9292 404.265 57.2818C412.039 92.3153 406.623 133.679 388.405 150.41Z" fill="#FFB78F"/>
<path d="M370.255 112.385L370.163 108.272C371.278 108.248 372.296 107.773 373.039 106.938C373.776 106.103 374.118 105.031 374.008 103.922L371.217 76.3827L375.312 75.9684L378.096 103.508C378.328 105.744 377.603 107.986 376.116 109.662C374.629 111.343 372.497 112.336 370.255 112.385Z" fill="#262626"/>
<path d="M352.732 79.2707C352.781 81.3666 351.605 83.0909 350.106 83.1213C348.613 83.1518 347.364 81.4824 347.315 79.3864C347.273 77.2905 348.449 75.5663 349.941 75.5358C351.44 75.5053 352.689 77.1748 352.732 79.2707Z" fill="#262626"/>
<path d="M393.907 78.3811C393.95 80.471 392.774 82.1952 391.281 82.2318C389.782 82.2622 388.533 80.5928 388.49 78.4969C388.442 76.401 389.618 74.6767 391.116 74.6462C392.609 74.6097 393.858 76.2852 393.907 78.3811Z" fill="#262626"/>
<path d="M362.353 122.31C359.623 122.2 356.96 120.872 355.224 118.764C353.487 116.65 352.708 113.774 353.128 111.075L357.192 111.715C356.948 113.275 357.399 114.932 358.404 116.15C359.404 117.369 360.945 118.137 362.517 118.204L362.353 122.31Z" fill="#262626"/>
<path d="M353.628 60.4013C355.413 60.4683 359.8 61.102 358.806 63.4843C358.38 64.5079 356.845 65.1902 355.413 65.6533C351.379 66.9632 346.962 67.536 342.807 67.2862C340.869 67.1765 338.682 66.6769 338.396 65.3669C338.219 64.5749 338.853 63.6914 339.766 63.076C340.686 62.4607 341.85 62.0647 343.008 61.7417C346.402 60.7974 350.155 60.2673 353.628 60.4013Z" fill="#262626"/>
<path d="M395.607 60.0479C397.148 60.3769 400.883 61.6077 399.762 63.6122C399.281 64.4774 397.873 64.8612 396.582 65.0684C392.938 65.6411 389.045 65.4949 385.468 64.648C383.799 64.2519 381.959 63.4782 381.855 62.2474C381.788 61.5041 382.434 60.8034 383.293 60.383C384.158 59.9626 385.213 59.7859 386.254 59.6641C389.295 59.3229 392.609 59.4082 395.607 60.0479Z" fill="#262626"/>
<path d="M496.357 339.427L125.428 306.446L125.459 306.367C125.763 305.703 150.25 254.719 170.07 223.853C170.728 222.817 171.386 221.812 172.032 220.824C178.082 211.691 183.578 204.721 187.678 202.016C198.286 194.997 227.367 193.437 274.927 197.337C310.82 231.834 338.743 234.765 358.703 206.141C361.822 206.683 365.777 207.433 370.566 208.401C373.825 209.053 377.603 209.839 381.679 210.747C402.76 215.402 432.109 223.128 441.644 231.694C451.551 240.602 471.231 282.337 484.086 311.168C484.787 312.74 485.47 314.282 486.128 315.768C490.198 324.969 493.609 332.853 496.357 339.427Z" fill="#F9614C"/>
<path fill-rule="evenodd" clip-rule="evenodd" d="M352.196 101.759C351.715 101.759 351.233 101.735 350.752 101.692C346.493 101.314 342.642 99.3038 339.901 96.0259C337.159 92.7479 335.855 88.6048 336.233 84.346C336.617 80.0932 338.627 76.2365 341.905 73.4947C345.177 70.759 349.326 69.4552 353.585 69.833C357.838 70.2107 361.689 72.2213 364.43 75.4992C367.172 78.7772 368.476 82.9264 368.098 87.1791C367.72 91.438 365.704 95.2886 362.432 98.0304C359.526 100.461 355.937 101.759 352.196 101.759ZM352.147 73.8847C349.363 73.8847 346.7 74.8473 344.543 76.6508C342.106 78.6858 340.614 81.5494 340.333 84.7115C340.053 87.8737 341.016 90.9566 343.057 93.3877C345.092 95.8248 347.955 97.3175 351.111 97.5978C354.274 97.8781 357.357 96.9093 359.788 94.8743C362.225 92.8393 363.717 89.9757 363.998 86.8136C364.284 83.6575 363.315 80.5745 361.28 78.1374C359.239 75.7064 356.382 74.2076 353.22 73.9273C352.86 73.8969 352.501 73.8847 352.147 73.8847Z" fill="white"/>
<path fill-rule="evenodd" clip-rule="evenodd" d="M395.01 100.059C394.529 100.059 394.047 100.041 393.566 99.9983C389.307 99.6206 385.456 97.6039 382.715 94.326C379.973 91.0541 378.675 86.9049 379.053 82.6522C379.431 78.3933 381.441 74.5427 384.719 71.8009C387.997 69.0591 392.146 67.7553 396.399 68.1331C400.652 68.5108 404.509 70.5275 407.25 73.8054C409.992 77.0773 411.29 81.2265 410.912 85.4792C410.534 89.7381 408.524 93.5887 405.246 96.3305C402.34 98.7615 398.751 100.059 395.01 100.059ZM394.961 72.1848C392.183 72.1848 389.514 73.1474 387.357 74.9509C384.926 76.992 383.427 79.8495 383.147 83.0116C382.867 86.1738 383.836 89.2568 385.871 91.6878C387.906 94.1249 390.769 95.6176 393.931 95.8979C397.088 96.1782 400.17 95.2155 402.608 93.1805C405.039 91.1394 406.537 88.2819 406.818 85.1198C407.098 81.9576 406.129 78.8746 404.094 76.4436C402.059 74.0065 399.196 72.5138 396.033 72.2335C395.674 72.197 395.315 72.1848 394.961 72.1848Z" fill="white"/>
<path d="M366.033 87.2522L365.923 83.1396L380.869 82.7375L380.978 86.8501L366.033 87.2522Z" fill="white"/>
<path d="M337.25 86.5455L295.752 63.1309L297.775 59.5483L339.273 82.969L337.25 86.5455Z" fill="white"/>
<path d="M397.666 36.3896C389.666 35.561 381.898 32.3379 375.854 27.025C369.755 21.6694 365.551 14.3093 363.711 6.41308C360.683 21.8583 352.641 36.347 340.9 46.8631C326.764 59.5178 307.499 66.226 288.563 65.2512C288.581 65.0806 288.605 64.91 288.624 64.7333C288.837 62.9907 289.111 61.0898 289.47 59.0548C291.31 48.5569 295.35 34.8481 304.148 23.3632C313.513 11.1472 328.233 1.39871 351.446 0.722412C351.696 0.698041 351.952 0.691949 352.202 0.704134C352.366 0.698042 352.537 0.691946 352.708 0.691946C355.236 0.655389 357.704 0.844262 360.049 1.25857C361.036 1.41698 361.987 1.61805 362.925 1.85567C362.98 1.86786 363.041 1.89223 363.09 1.9105C363.577 2.02017 364.046 2.14812 364.534 2.28825C365.478 2.56243 366.398 2.86098 367.3 3.20217C367.306 3.20827 367.318 3.21436 367.324 3.21436C368.628 3.70788 369.895 4.26841 371.132 4.88988C382.769 10.7329 391.604 22.2178 397.666 36.3896Z" fill="#262626"/>
<path d="M307.694 108.522C297.641 113.275 284.456 110.027 277.76 101.15C271.064 92.2727 271.57 78.7041 278.906 70.3447C282.117 66.683 286.583 63.9778 291.426 63.5391C296.276 63.1004 301.437 65.1841 304.093 69.2663" fill="#FFB78F"/>
<path d="M288.8 95.8674C288.295 90.4814 289.653 84.937 292.505 80.3369L286.046 80.6355L285.858 76.5289L296.691 76.0232L298.293 79.4717C294.369 83.7306 292.352 89.7137 292.895 95.4775L288.8 95.8674Z" fill="#262626"/>
<path d="M300.529 322.014L125.428 306.446L125.459 306.367C125.763 305.703 150.25 254.719 170.07 223.853C170.728 222.817 171.386 221.812 172.032 220.825C182.92 220.825 193.741 224.139 202.654 230.847C211.708 237.665 218.812 247.474 228.591 252.994C244.012 261.695 263.345 258.259 279.113 266.173C292.779 273.034 302.314 288.643 302.923 305.167C303.137 310.876 302.284 316.609 300.529 322.014Z" fill="#EA3E2D"/>
<path d="M486.128 315.768C477.908 321.136 467.636 323.427 457.954 321.66C444.41 319.193 432.59 308.89 428.295 295.815C425.76 288.095 425.73 279.821 424.615 271.785C423.512 263.742 420.996 255.358 414.836 250.07C410.735 246.567 405.465 244.8 400.804 242.088C391.659 236.763 384.878 227.514 382.55 217.187C382.075 215.067 381.789 212.91 381.679 210.747C402.76 215.402 432.109 223.128 441.644 231.694C451.551 240.602 471.231 282.337 484.086 311.168C484.787 312.74 485.47 314.282 486.128 315.768Z" fill="#EA3E2D"/>
<path d="M591.984 370.866L566.443 658.092C565.328 670.661 554.233 679.947 541.663 678.826L20.9549 632.533C8.38547 631.412 -0.899956 620.317 0.221118 607.747L25.756 320.521C26.8771 307.951 37.9721 298.672 50.5415 299.787L571.244 346.086C583.813 347.201 593.099 358.296 591.984 370.866Z" fill="white"/>
<path d="M545.197 437.825L538.562 512.468C537.441 525.038 526.346 534.323 513.776 533.202L74.0901 494.111C61.5207 492.996 52.2353 481.901 53.3564 469.331L59.9914 394.682C61.1125 382.113 72.2075 372.827 84.7769 373.949L524.463 413.04C537.033 414.161 546.312 425.256 545.197 437.825Z" fill="#FACF61"/>
<path fill-rule="evenodd" clip-rule="evenodd" d="M162.35 553.491C159.919 540.519 158.774 527.328 158.859 514.131C157.555 515.259 156.251 516.374 154.935 517.476C135.846 533.525 119.317 538.74 105.803 532.995C87.4941 525.202 84.1491 501.708 83.7897 488.396C83.0829 462.702 88.3471 436.29 99.0095 412.022C109.672 387.755 125.562 366.016 144.961 349.151L147.66 352.252C128.712 368.721 113.193 389.96 102.775 413.68C92.3561 437.393 87.2138 463.19 87.8962 488.286C88.1521 497.596 89.7484 506.059 92.5146 512.761C95.8656 520.894 100.88 526.427 107.418 529.205C110.44 530.497 113.663 531.136 117.081 531.136C127.183 531.136 138.978 525.519 152.285 514.326C154.533 512.438 156.757 510.525 158.963 508.581C160.62 457.005 180.878 405.863 216.015 368.045C220.902 362.78 226.373 357.559 233.221 354.951C239.875 352.429 249.142 352.612 254.857 358.723C261.236 365.528 260.931 376.246 253.949 390.57C231.936 435.76 200.619 477.014 163.02 510.482C162.685 524.635 163.782 538.813 166.396 552.735L162.35 553.491ZM241.563 357.559C239.125 357.559 236.719 358.028 234.684 358.802C228.957 360.971 224.283 365.187 219.031 370.841C185.454 406.978 165.732 455.507 163.234 504.761C199.126 472.128 229.048 432.287 250.257 388.772C256.411 376.136 256.953 366.966 251.859 361.531C249.185 358.68 245.334 357.559 241.563 357.559Z" fill="white"/>
<path d="M550.095 581.487C494.346 531.362 467.502 451.406 481.704 377.799L485.743 378.573C471.809 450.803 498.148 529.248 552.849 578.429L550.095 581.487Z" fill="white"/>
<path fill-rule="evenodd" clip-rule="evenodd" d="M348.85 558.322C342.617 558.322 336.512 556.214 331.187 552.23C326.228 548.513 322.456 543.511 320.568 538.143C316.967 527.889 319.13 517.056 321.999 506.869C331.297 473.907 347.199 442.523 369.267 413.594C382.221 396.614 396.99 380.882 413.422 366.54C411.661 365.163 409.73 364.005 407.621 363.067C396.569 358.162 381.928 360.063 364.095 368.709C329.774 385.348 301.15 410 281.324 439.994C261.528 469.934 251.78 503.262 253.133 536.37L249.026 536.541C247.637 502.561 257.617 468.393 277.888 437.728C298.128 407.118 327.318 381.967 362.303 365.004C381.27 355.81 397.081 353.891 409.285 359.308C411.96 360.496 414.384 362.001 416.572 363.822C427.204 354.775 438.506 346.299 450.448 338.428L452.708 341.864C441.034 349.559 429.97 357.845 419.557 366.68C425.638 373.327 429.318 383.045 430.543 395.73C433.065 421.941 429.738 448.128 420.642 473.572C411.557 498.997 397.233 522.223 378.065 542.609C371.235 549.884 361.761 558.237 349.033 558.322C348.972 558.322 348.911 558.322 348.85 558.322ZM416.468 369.336C400.109 383.575 385.413 399.209 372.539 416.086C350.788 444.607 335.111 475.521 325.96 507.984C323.456 516.867 321.067 527.146 324.449 536.778C327.422 545.247 336.976 554.21 348.85 554.21C348.899 554.21 348.954 554.21 349.003 554.21C360.171 554.137 368.798 546.466 375.074 539.794C393.846 519.822 407.871 497.078 416.767 472.189C425.656 447.318 428.916 421.728 426.448 396.126C425.291 384.148 422.007 375.283 416.468 369.336Z" fill="white"/>
<path d="M120.365 305.996L197.03 312.813C196.263 315.963 195.452 319.107 194.612 322.245C193.868 324.993 193.076 327.808 191.407 330.105C189.731 332.408 186.977 334.132 184.156 333.803C181.165 333.45 178.819 330.873 177.832 328.021C176.851 325.231 176.936 322.209 177.046 319.254C176.285 323.342 175.468 327.43 174.53 331.5C174.183 333.029 173.604 334.522 172.793 335.875C171.977 337.209 170.795 338.391 169.302 338.878C167.493 339.476 165.452 338.982 163.874 337.922C162.302 336.856 161.126 335.29 160.181 333.633C157.927 329.684 156.806 325.097 156.976 320.551C156.105 324.713 155.179 328.819 154.143 332.804C153.741 334.321 153.132 335.795 152.273 337.118C151.432 338.44 150.201 339.579 148.696 340.03C146.875 340.572 144.852 340.018 143.304 338.915C141.757 337.806 140.63 336.198 139.74 334.522C137.608 330.513 136.614 325.913 136.907 321.374C135.475 328.886 134.244 334.888 133.824 335.619C132.867 337.264 131.186 338.623 129.279 338.641C126.129 338.671 124.118 335.351 123.058 332.39C121.187 327.168 119.043 314.513 120.365 305.996Z" fill="#CCCCCC"/>
<path d="M210.538 292.336C208.516 302.645 206.133 312.887 203.416 323.031C202.679 325.779 201.88 328.588 200.211 330.891C198.542 333.194 195.788 334.924 192.961 334.589C189.969 334.236 187.617 331.652 186.63 328.807C185.661 326.017 185.741 322.994 185.85 320.039C185.089 324.128 184.278 328.216 183.334 332.286C182.981 333.815 182.408 335.308 181.598 336.655C180.787 338.001 179.593 339.177 178.1 339.664C176.297 340.261 174.256 339.768 172.678 338.702C171.1 337.642 169.936 336.07 168.992 334.418C166.731 330.47 165.61 325.882 165.781 321.331C164.903 325.499 163.983 329.611 162.948 333.59C162.545 335.107 161.93 336.581 161.083 337.904C160.236 339.226 159.012 340.365 157.501 340.816C155.679 341.358 153.656 340.804 152.108 339.701C150.561 338.592 149.44 336.984 148.544 335.308C146.406 331.305 145.419 326.693 145.711 322.166C144.285 329.672 143.048 335.667 142.628 336.405C141.678 338.056 139.99 339.415 138.083 339.433C134.939 339.463 132.928 336.137 131.862 333.182C129.992 327.954 127.841 315.299 129.169 306.782L101.374 304.308C106.626 288.662 110.129 280.497 122.443 270.42C129.443 264.686 137.626 260.422 146.308 257.856C163.252 252.854 182.085 254.566 197.853 262.542C202.77 265.028 207.614 268.336 210.02 273.296C212.847 279.114 211.787 285.993 210.538 292.336Z" fill="#FFB78F"/>
<path fill-rule="evenodd" clip-rule="evenodd" d="M138.101 341.486L138.064 337.373C139.039 337.367 140.112 336.612 140.806 335.442C141.507 333.614 144.188 319.65 148.769 293.932L152.815 294.651C146.765 328.624 145.114 336.204 144.407 337.428C142.981 339.908 140.562 341.462 138.101 341.486ZM140.843 335.375C140.843 335.381 140.843 335.381 140.843 335.381C140.843 335.381 140.843 335.381 140.843 335.375Z" fill="#262626"/>
<path d="M158.091 342.784L156.916 338.842C157.805 338.58 158.67 337.849 159.353 336.795C160.053 335.698 160.596 334.449 160.955 333.066C162.539 327.004 163.873 320.484 165.159 314.178C166.53 307.47 167.943 300.543 169.686 294.035L173.659 295.096C171.946 301.487 170.545 308.354 169.186 315.001C167.889 321.362 166.548 327.936 164.934 334.108C164.464 335.911 163.752 337.562 162.813 339.019C161.601 340.901 159.925 342.242 158.091 342.784Z" fill="#262626"/>
<path d="M178.746 341.62L177.46 337.715C178.344 337.422 179.185 336.673 179.837 335.594C180.507 334.479 181.013 333.212 181.329 331.823C182.743 325.73 183.876 319.491 184.973 313.453C186.143 307.007 187.361 300.335 188.915 293.767L192.918 294.718C191.382 301.182 190.182 307.793 189.018 314.19C187.916 320.277 186.77 326.565 185.338 332.749C184.918 334.565 184.254 336.234 183.358 337.715C182.201 339.634 180.562 341.023 178.746 341.62Z" fill="#262626"/>
<path d="M508.317 340.487C507.556 343.6 506.758 346.708 505.929 349.803C505.186 352.551 504.394 355.366 502.73 357.662C501.049 359.966 498.295 361.69 495.474 361.361C492.482 361.001 490.136 358.424 489.149 355.579C488.168 352.782 488.254 349.766 488.363 346.811C487.602 350.893 486.785 354.988 485.847 359.058C485.5 360.587 484.921 362.08 484.111 363.426C483.3 364.767 482.112 365.949 480.62 366.436C478.81 367.033 476.769 366.54 475.191 365.473C473.619 364.413 472.443 362.841 471.499 361.19C469.244 357.242 468.123 352.654 468.294 348.103C467.423 352.27 466.496 356.377 465.461 360.362C465.059 361.879 464.449 363.347 463.59 364.675C462.749 365.991 461.519 367.137 460.014 367.588C458.192 368.124 456.175 367.575 454.622 366.467C453.074 365.364 451.953 363.755 451.063 362.08C448.925 358.071 447.932 353.465 448.224 348.932C446.792 356.444 445.562 362.439 445.141 363.176C444.185 364.822 442.503 366.18 440.596 366.198C437.452 366.229 435.435 362.908 434.375 359.947C432.517 354.75 430.372 342.187 431.664 333.675L508.317 340.487Z" fill="#CCCCCC"/>
<path d="M521.849 320.015C519.82 330.324 517.444 340.566 514.721 350.711C513.984 353.458 513.191 356.267 511.516 358.57C509.847 360.873 507.093 362.604 504.266 362.269C501.274 361.915 498.928 359.332 497.935 356.487C496.966 353.696 497.046 350.674 497.161 347.719C496.394 351.807 495.583 355.889 494.639 359.966C494.286 361.495 493.713 362.988 492.903 364.334C492.092 365.681 490.904 366.856 489.411 367.344C487.602 367.941 485.561 367.447 483.983 366.381C482.411 365.321 481.241 363.749 480.297 362.098C478.036 358.15 476.915 353.562 477.086 349.011C476.208 353.178 475.294 357.291 474.252 361.269C473.85 362.787 473.241 364.261 472.388 365.583C471.541 366.905 470.317 368.045 468.812 368.495C466.99 369.038 464.961 368.483 463.413 367.374C461.872 366.272 460.745 364.663 459.849 362.988C457.711 358.985 456.724 354.372 457.016 349.845C455.59 357.352 454.36 363.347 453.933 364.084C452.983 365.735 451.295 367.094 449.388 367.112C446.244 367.137 444.233 363.816 443.173 360.861C441.297 355.634 439.152 342.979 440.474 334.461L412.679 331.987C417.931 316.341 421.434 308.177 433.748 298.099C440.754 292.366 448.937 288.101 457.613 285.536C474.557 280.534 493.39 282.246 509.158 290.221C514.081 292.707 518.919 296.016 521.325 300.975C524.152 306.794 523.098 313.673 521.849 320.015Z" fill="#FFB78F"/>
<path fill-rule="evenodd" clip-rule="evenodd" d="M449.406 369.166L449.37 365.053C450.344 365.047 451.417 364.291 452.111 363.122C452.818 361.294 455.493 347.329 460.075 321.611L464.12 322.33C458.076 356.304 456.419 363.883 455.718 365.108C454.286 367.588 451.874 369.141 449.406 369.166Z" fill="#262626"/>
<path d="M469.396 370.463L468.221 366.521C469.116 366.259 469.981 365.528 470.658 364.474C471.364 363.378 471.901 362.128 472.26 360.745C473.85 354.683 475.179 348.158 476.464 341.852C477.835 335.15 479.249 328.222 480.991 321.715L484.964 322.775C483.252 329.166 481.85 336.033 480.498 342.674C479.2 349.035 477.853 355.615 476.239 361.787C475.77 363.591 475.057 365.242 474.118 366.698C472.906 368.581 471.23 369.921 469.396 370.463Z" fill="#262626"/>
<path d="M490.051 369.3L488.766 365.394C489.649 365.102 490.496 364.346 491.142 363.274C491.812 362.159 492.318 360.892 492.634 359.503C494.048 353.41 495.181 347.165 496.278 341.133C497.454 334.68 498.666 328.015 500.22 321.447L504.223 322.397C502.694 328.862 501.487 335.473 500.324 341.864C499.221 347.951 498.075 354.244 496.643 360.429C496.223 362.244 495.559 363.914 494.663 365.394C493.506 367.313 491.867 368.703 490.051 369.3Z" fill="#262626"/>
<path d="M177.982 457.524C177.382 461.156 175.764 463.91 173.128 465.786C170.508 467.664 167.206 468.42 163.223 468.054C158.866 467.654 155.57 465.876 153.333 462.721C151.114 459.552 150.239 455.408 150.709 450.288L150.9 448.211C151.2 444.944 152.04 442.118 153.42 439.734C154.8 437.35 156.616 435.595 158.87 434.468C161.14 433.327 163.691 432.887 166.522 433.147C170.443 433.507 173.506 434.847 175.709 437.168C177.912 439.489 179.026 442.564 179.051 446.395L172.049 445.752C172.08 443.542 171.611 441.899 170.643 440.822C169.692 439.73 168.142 439.086 165.995 438.888C163.661 438.674 161.834 439.354 160.512 440.927C159.208 442.486 158.379 445.022 158.025 448.536L157.789 451.103C157.452 454.775 157.758 457.51 158.707 459.308C159.671 461.106 161.352 462.116 163.748 462.336C165.911 462.535 167.566 462.192 168.714 461.309C169.879 460.412 170.635 458.936 170.98 456.881L177.982 457.524ZM210.944 455.608C210.637 458.953 209.776 461.832 208.362 464.244C206.948 466.656 205.073 468.445 202.738 469.611C200.419 470.779 197.835 471.232 194.988 470.971C192.171 470.712 189.721 469.805 187.636 468.248C185.55 466.692 184.016 464.605 183.032 461.988C182.05 459.356 181.701 456.406 181.986 453.137L182.14 451.457C182.447 448.111 183.316 445.225 184.747 442.799C186.195 440.359 188.078 438.563 190.397 437.41C192.732 436.244 195.315 435.791 198.147 436.051C200.979 436.311 203.429 437.226 205.497 438.797C207.582 440.354 209.107 442.463 210.071 445.125C211.051 447.772 211.389 450.761 211.083 454.091L210.944 455.608ZM203.99 453.416C204.317 449.853 203.928 447.087 202.822 445.118C201.716 443.149 199.981 442.056 197.616 441.839C195.266 441.623 193.369 442.375 191.925 444.094C190.482 445.797 189.59 448.414 189.25 451.945L189.098 453.602C188.78 457.072 189.17 459.822 190.27 461.853C191.371 463.884 193.119 465.009 195.515 465.229C197.864 465.445 199.754 464.693 201.183 462.973C202.613 461.237 203.498 458.604 203.838 455.073L203.99 453.416ZM242.176 474.833L235.174 474.19L223.597 450.58L221.544 472.939L214.542 472.296L217.663 438.314L224.665 438.957L236.261 462.616L238.318 440.21L245.296 440.851L242.176 474.833ZM275.77 449.369L265.361 448.413L262.761 476.724L255.759 476.081L258.359 447.77L248.09 446.827L248.611 441.156L276.291 443.697L275.77 449.369ZM294.212 472.551L281.936 471.423L278.959 478.211L271.514 477.527L287.284 444.707L293.772 445.303L303.372 480.453L295.926 479.769L294.212 472.551ZM284.347 465.926L292.842 466.706L289.739 453.594L284.347 465.926ZM333.749 471.827C333.148 475.459 331.53 478.214 328.895 480.09C326.274 481.967 322.973 482.723 318.989 482.358C314.633 481.957 311.336 480.18 309.1 477.025C306.88 473.855 306.006 469.711 306.476 464.592L306.666 462.515C306.966 459.247 307.806 456.422 309.186 454.038C310.566 451.654 312.383 449.899 314.636 448.772C316.906 447.631 319.457 447.19 322.289 447.451C326.21 447.811 329.272 449.151 331.475 451.471C333.679 453.792 334.793 456.868 334.818 460.699L327.816 460.056C327.846 457.846 327.377 456.202 326.409 455.125C325.458 454.034 323.909 453.389 321.762 453.192C319.428 452.978 317.6 453.657 316.279 455.23C314.975 456.79 314.146 459.326 313.792 462.84L313.556 465.407C313.219 469.079 313.524 471.814 314.473 473.611C315.438 475.41 317.118 476.419 319.515 476.639C321.677 476.838 323.333 476.496 324.481 475.613C325.646 474.715 326.401 473.239 326.747 471.184L333.749 471.827ZM364.786 457.543L354.377 456.587L351.777 484.898L344.776 484.255L347.375 455.944L337.106 455.001L337.627 449.33L365.307 451.871L364.786 457.543ZM405.544 455.566L403.489 477.949C403.147 481.667 401.71 484.501 399.178 486.449C396.661 488.399 393.387 489.189 389.357 488.819C385.39 488.455 382.335 487.115 380.194 484.8C378.053 482.486 377.128 479.49 377.419 475.814L379.497 453.174L386.499 453.817L384.44 476.247C384.235 478.472 384.615 480.146 385.579 481.27C386.56 482.38 387.991 483.022 389.874 483.194C393.811 483.556 396 481.67 396.442 477.537L398.519 454.921L405.544 455.566ZM426.605 482.778C426.726 481.455 426.353 480.401 425.483 479.615C424.615 478.814 423.004 477.913 420.648 476.912C418.293 475.895 416.443 474.941 415.097 474.049C411.43 471.609 409.758 468.624 410.083 465.092C410.251 463.255 410.915 461.669 412.073 460.332C413.249 458.98 414.838 457.989 416.842 457.357C418.861 456.726 421.077 456.522 423.488 456.743C425.916 456.966 428.038 457.608 429.854 458.669C431.673 459.715 433.029 461.087 433.925 462.785C434.836 464.485 435.198 466.354 435.01 468.393L428.009 467.75C428.151 466.194 427.772 464.943 426.87 463.997C425.97 463.036 424.633 462.474 422.859 462.311C421.148 462.154 419.784 462.397 418.768 463.041C417.753 463.67 417.191 464.575 417.082 465.758C416.981 466.863 417.448 467.839 418.484 468.687C419.536 469.537 421.113 470.388 423.216 471.24C427.089 472.804 429.855 474.556 431.512 476.497C433.17 478.438 433.877 480.731 433.634 483.376C433.364 486.317 432.04 488.526 429.66 490.002C427.282 491.462 424.211 492.02 420.445 491.674C417.831 491.434 415.494 490.741 413.434 489.594C411.376 488.433 409.855 486.967 408.872 485.198C407.905 483.43 407.522 481.449 407.723 479.255L414.748 479.9C414.404 483.65 416.472 485.731 420.953 486.142C422.618 486.295 423.948 486.08 424.943 485.497C425.94 484.898 426.494 483.992 426.605 482.778ZM444.949 482.933L439.348 482.418L440.716 458.796L447.905 459.456L444.949 482.933ZM441.81 486.363C442.945 486.467 443.825 486.885 444.448 487.617C445.087 488.351 445.358 489.239 445.263 490.281C445.168 491.308 444.74 492.124 443.979 492.729C443.233 493.335 442.292 493.586 441.156 493.482C440.036 493.379 439.156 492.961 438.517 492.227C437.894 491.495 437.63 490.616 437.724 489.589C437.818 488.562 438.239 487.745 438.985 487.139C439.748 486.519 440.689 486.26 441.81 486.363Z" fill="black"/>
</svg>
